/* XPM */
static char * application_x_ngraph_xpm[] = {
"32 32 12 1",
" 	c None",
".	c #000000",
"+	c #0000FC",
"@	c #FC0000",
"#	c #008080",
"$	c #808000",
"%	c #808080",
"&	c #00ECEC",
"*	c #C0C0C0",
"=	c #00FCFC",
"-	c #FCFC00",
";	c #FCFCFC",
"                %%              ",
"              %%;;%             ",
"            %%;;;;;%            ",
"          %%;;;;;;;;%           ",
"        %%;;;;;;;;;;;%          ",
"      %%;;;;;+;;;;;;;;%         ",
"    %%;;;;;;;=+;;@;;;;;%        ",
"  %%;;;;;;;;;;;;@;;;;;;;%       ",
" %;;;;;+;;;+;;;@;;=+;;;;;%      ",
".%;;;;;=+;;=+;@;;;+;;;;;;;%     ",
".*%;;;;;;;;;;@;;;;;;;;;;;;;%    ",
".**%;.;;;;;;@;;;;;;;;;;;;;;;%   ",
".***%;.;;;;@;;;;;;;;;;;;..;;;%  ",
".***%;;.;;@;;=+;;;;;;;..;;;;;;% ",
".**%;;;;.@;;;+;;;;;;..;;;;;;;;;%",
".*%;;;;;@.;;;;;;;;..**********;;",
".%;;;;;@;;.;;;;;..************;;",
".%;;;;@;;;;.;;..;;************;;",
" .%;;@;;;;;;..;;;;***$$$$$$$$$$$",
"  .%;;;;;;..;..;;;***$----------",
"   .%;;;..;;;;.;;;***$-#=##=##=-",
"    .%;;;;;;;;;.;;***$-#=##=##=-",
"     .%;;;;;;;;;;;***$----------",
"      .%;;;;;;;;;;***$--+--+--+-",
"       .%;;;;;;;;;**%$-.+-.+-.+-",
"==    ==.%;;;;;;;;%%.$----------",
"===   == .%;;;;;%%.. $--+--+--+-",
"====  ==  .%;;%%..   $-.+-.+-.+-",
"== == ==   .%%..     $----------",
"==  ====    ..       $--+--+--+-",
"==   ===             $-.+-.+-.+-",
"==    ==              ----------"};
