/* XPM */
static char *application_x_ngraph_script[] = {
/* columns rows colors chars-per-pixel */
"32 32 128 2",
"   c #05920592048D",
".  c #0D150D150368",
"X  c #000000000A2D",
"o  c #12BD12BD056C",
"O  c #06F906F919CA",
"+  c #0D150D1525F4",
"@  c #000000003207",
"#  c #2646264625EF",
"$  c #2CFC2CFC2CF6",
"%  c #26A426A43E21",
"&  c #57305730190C",
"*  c #7FCA7FCA0000",
"=  c #00000000525E",
"-  c #2BCD2BCD45E8",
";  c #0D810D817D0F",
":  c #4D7D4D7D4D7D",
">  c #5373537D537D",
",  c #5D6856245624",
"<  c #5C6C5C6C5C6C",
"1  c #6C1E48784878",
"2  c #67EE67EE5ADA",
"3  c #5775577567A7",
"4  c #5806571367E0",
"5  c #573357226891",
"6  c #5F4B5F4B7B0E",
"7  c #62E562E562E6",
"8  c #6D506D506D1F",
"9  c #73C873C873C8",
"0  c #7C6D7C6D7C6D",
"q  c #BF4F3B1C3B1C",
"w  c #808E45CB45CB",
"e  c #FD0C6870680A",
"r  c #FD8178F2786A",
"t  c #1C7B94517DCF",
"y  c #1BB29AB77E0C",
"u  c #3601A2146B1A",
"i  c #368DADD1764D",
"p  c #7FF1C570457F",
"a  c #84CB84CB0153",
"s  c #9D849D840000",
"d  c #8D278D2B1500",
"f  c #962395AB146D",
"g  c #B6C7B6840000",
"h  c #C248BF990041",
"j  c #8F7DCC5A3CDC",
"k  c #D4DFE1840B9A",
"l  c #DE0EEC830F47",
"z  c #D57FE2BB1ADD",
"x  c #D8DFE5291B61",
"c  c #E2EFE2EB0000",
"v  c #E34AEA2D0577",
"b  c #EE04EE3C0000",
"n  c #E302E2EE0C20",
"m  c #E162EEC30D6B",
"M  c #EF09EEFF0E2A",
"N  c #E3B7F12C0BC0",
"B  c #EE73F61B07A8",
"V  c #F280F2800000",
"C  c #FEC0FEEC000B",
"Z  c #EEFEEEFE10EC",
"A  c #9E459E455FAA",
"S  c #9E359E356056",
"D  c #A12BA12B62ED",
"F  c #A3DBA3DB6ADD",
"G  c #80DFC6464567",
"H  c #E04DE003439C",
"J  c #000000009AD4",
"K  c #00000000AEA0",
"L  c #08260826B0C3",
"P  c #57345734A654",
"I  c #58095720A577",
"U  c #00000000DE2B",
"Y  c #1FAA1FAACB55",
"T  c #006E006EE47E",
"R  c #00000000EA65",
"E  c #11551155E1E4",
"W  c #00000000F4A5",
"Q  c #00000000FD22",
"!  c #1FBD1FBDE4D6",
"~  c #57B557B5C9FD",
"^  c #1B7D9F8E8423",
"/  c #00008D4894F0",
"(  c #0000951F9C4D",
")  c #1BB2A05C83B1",
"_  c #1D36A4928D49",
"`  c #0474979AFCF1",
"'  c #2996905CFD0D",
"]  c #838883888388",
"[  c #89FC89FC89FC",
"{  c #942494249424",
"}  c #9CFE9D1A9D10",
"|  c #BE8BBE8B864E",
" . c #9F9E9F9EADBE",
".. c #A1F7A1F7A1F7",
"X. c #ACACACACACAC",
"o. c #B4F3B4F3A7DE",
"O. c #B8F8B8F8ABD3",
"+. c #B33AB33AB33A",
"@. c #BBC6BBC6B752",
"#. c #BDD3BDD2BDD4",
"$. c #F1D6A738A738",
"%. c #FCC6A68EA6C5",
"&. c #FF33A8BDA6E8",
"*. c #FFFFAB45AB45",
"=. c #9313AAAEFE1B",
"-. c #A886A886F34E",
";. c #B028BF79FD06",
":. c #B060BFD4FD32",
">. c #B029C093FE20",
",. c #C321C321C41C",
"<. c #CB6CCB6CCBB5",
"1. c #D5EFD5EFD5EF",
"2. c #D813D87FD87F",
"3. c #DE76DEBDDEBD",
"4. c #F338DA8ADA8A",
"5. c #E2FBCF03E53D",
"6. c #E3ECE3ECE3EC",
"7. c #EE57EE57E2FF",
"8. c #EE00EE00EE27",
"9. c #F1D1E5B0E5B0",
"0. c #FE2CE636E56B",
"q. c #E54DE54EFD26",
"w. c #EF62EF62FE2D",
"e. c #F45FF459F447",
"r. c #FF07F547F3E0",
"t. c #F8E2F7C3FCF8",
"y. c #FDC0FDC6FDA4",
"u. c None",
/* pixels */
"u.u.u.u.u.u.u.u.u.u.u.u.u.u.u.[ X.X.u.u.u.u.u.u.u.u.u.u.u.u.u.u.",
"u.u.u.u.u.u.u.u.u.u.u.u.u.u.X.1.t.e.X.u.u.u.u.u.u.u.u.u.u.u.u.u.",
"u.u.u.u.u.u.u.u.u.u.u.[ X.1.e.y.y.y.e.X.u.u.u.u.u.u.u.u.u.u.u.u.",
"u.u.u.u.u.u.u.u.u.[ X.1.e.y.y.y.y.y.y.e.X.u.u.u.u.u.u.u.u.u.u.u.",
"u.u.u.u.u.u.u.[ X.1.e.y.y.q.t.y.y.y.y.y.e.X.u.u.u.u.u.u.u.u.u.u.",
"u.u.u.u.u.[ X.1.e.y.y.y.;.' ;.y.y.0.t.y.y.e.X.u.u.u.u.u.u.u.u.u.",
"u.u.u.[ X.1.e.y.y.y.y.y.:.' ;.y.%.r r.y.y.y.e.X.u.u.u.u.u.u.u.u.",
"u.u.X.1.e.y.y.q.t.y.t.q.t.q.t.%.e 5.=.q.y.y.y.e.X.u.u.u.u.u.u.u.",
"9 +.t.y.y.y.;.' ;.y.;.' :.y.%.e 0.=.` =.y.y.y.y.e.X.u.u.u.u.u.u.",
": } 1.y.y.y.;.' ;.y.;.' >.&.e 0.y.q.=.q.y.y.y.y.y.e.X.u.u.u.u.u.",
"> +...1.8.8.y.q.t.y.t.q.%.e 0.y.y.y.y.y.y.y.y.t.e.y.e.X.u.u.u.u.",
"> #.@...{ 8 #.e.y.y.y.&.e 0.y.y.y.y.y.y.y.y.y.e.[ { e.e.X.u.u.u.",
"> @.,.+.[ 9 < 3.e.y.%.e 5.=.q.y.y.y.y.y.e.<.1.[ 7 [ 8.y.e.X.u.u.",
"> #.@...<.e.} , #.*.e 0.=.` =.y.y.t.e.y.1.> > X.e.e.t.y.y.e.X.u.",
"> +...1.y.y.2.} 1 q 4.y.q.=.q.y.y.8.] 0 < { X.1.6.3.3.3.3.6.8.+.",
": } 1.y.y.y.y.$.w , 3.e.y.y.e.<.1.[ : 7 X.,.,.#.#.#.#.#.#.,.e.t.",
": <.y.y.y.y.%.e 9.} , #.y.y.1.> > ..#.@.#.,.,.,.,.,.,.,.,.<.t.y.",
"$ } e.y.y.%.e 0.y.2.} 8 <.[ 8 +.<.8.<.,.@.F A S S S S S S D | 7.",
"u.$ } e.0.r 0.t.e.y.2.: # { 6.y.y.e.,.,.O.d g h h h h h h h h H ",
"u.u.$ } e.r.y.8.[ 0 8 +.} < #.y.y.e.,.,.O.f v j p G G G G p j B ",
"u.u.u.$ } e.y.#.7 ] 6.y.2.} 8 #.e.e.,.,.O.f k t ( ( / ( ( / _ l ",
"u.u.u.u.$ } e.8.8.e.t.y.y.e.] 7 8.t.,.,.O.f k u ) ^ y ) ^ y i m ",
"u.u.u.u.u.$ } e.y.y.y.y.y.t.8.#.8.e.,.,.O.f b x z N z z N z x C ",
"u.u.u.u.u.u.$ } e.y.y.y.y.y.y.y.y.e.<.,.o.f c 5 I n 4 I n 4 I M ",
"u.Q Q Q Q u.u.$ } e.y.y.y.y.y.y.y.t.,.} 2 a c & 5 n & 5 n & 3 Z ",
"Q Q Q Q Q Q u.u.$ } e.y.y.y.y.y.8.@.7 # o * V n n C n n C n n C ",
"Q Q u.u.Q u.u.u.u.$ } e.w.q.8.@.8 #   X . a c 5 P n 5 P n 5 I M ",
"u.Q Q Q Q u.u.u.u.u.-  .-.~ 6 % O u.= J + a c & 5 n & 5 n & 3 Z ",
"u.u.u.Q Q Q u.Q Q u.T Y ! E L U R Q W Q ; a V n n C n n C n n C ",
"Q Q u.u.Q Q Q Q u.u.Q K J Q Q Q Q Q Q T @ a c 5 P n 5 P n 5 I M ",
"Q Q Q Q Q Q Q Q Q u.Q W R Q Q Q Q Q Q Q u.s c & 5 n & 5 n & 3 Z ",
"u.u.Q Q u.u.u.Q u.u.Q u.u.u.Q Q u.u.u.Q u.u.V b b C b b C b b C "
};
