/* XPM */
static char *application_x_ngraph_graphic[] = {
/* columns rows colors chars-per-pixel */
"32 32 129 2",
"   c #00E500EE00EE",
".  c #0D0B0D0B0000",
"X  c #1212121202D5",
"o  c #25F525F5266F",
"O  c #299827382738",
"+  c #2CAA2CF92CF9",
"@  c #35502B622B62",
"#  c #3F24294C294C",
"$  c #2D7D33CE33CE",
"%  c #57305730190C",
"&  c #7FCA7FCA0000",
"*  c #4D7D4D7D4D7D",
"=  c #5373537D537D",
"-  c #5D6856245624",
";  c #5C6C5C6C5C6C",
":  c #6C1E48784878",
">  c #791250F650F6",
",  c #67EE67EE5ADA",
"<  c #5775577567A7",
"1  c #5806571367E0",
"2  c #573357226891",
"3  c #62E662E562E5",
"4  c #6E026E026E02",
"5  c #73C873C873C8",
"6  c #7C6D7C6D7C6D",
"7  c #83EF05990599",
"8  c #9E8000050005",
"9  c #A6C500010001",
"0  c #AF4F032F032F",
"q  c #A68B10181018",
"w  c #A58918CF18CF",
"e  c #9D4C26102610",
"r  c #BF4F3B1C3B1C",
"t  c #CAD201230123",
"y  c #DD6705680568",
"u  c #E25706870687",
"i  c #ED6E00000000",
"p  c #FD4F00000000",
"a  c #E08225532553",
"s  c #808E45CB45CB",
"d  c #88EE65B365B3",
"f  c #BFD56EC16EC1",
"g  c #D224772C772C",
"h  c #FD0C6870680A",
"j  c #F5287FC47FC4",
"k  c #FE5679E5798A",
"l  c #1C7B94517DCF",
"z  c #1BB29AB77E0C",
"x  c #3601A2146B1A",
"c  c #368DADD1764D",
"v  c #7FF1C570457F",
"b  c #847284720153",
"n  c #99AE99AE0000",
"m  c #8D278D2B1500",
"M  c #962395AB146D",
"N  c #B6C7B6840000",
"B  c #C248BF990041",
"V  c #8F7DCC5A3CDC",
"C  c #D4DFE1840B9A",
"Z  c #DE0EEC830F47",
"A  c #D57FE2BB1ADD",
"S  c #D8DFE5291B61",
"D  c #E2EFE2EB0000",
"F  c #E34AEA2D0577",
"G  c #EE04EE3C0000",
"H  c #E302E2EE0C20",
"J  c #E162EEC30D6B",
"K  c #EF09EEFF0E2A",
"L  c #E3B7F12C0BC0",
"P  c #EE73F61B07A8",
"I  c #F280F2800000",
"U  c #FEC0FEEC000B",
"Y  c #EEFEEEFE10EC",
"T  c #9E459E455FAA",
"R  c #9E359E356056",
"E  c #A12BA12B62ED",
"W  c #A3DBA3DB6ADD",
"Q  c #80DFC6464567",
"!  c #E04DE003439C",
"~  c #57345734A654",
"^  c #58095720A577",
"/  c #1B7D9F8E8423",
"(  c #00008D4894F0",
")  c #0000951F9C4D",
"_  c #1BB2A05C83B1",
"`  c #1D36A4928D49",
"'  c #0474979AFCF1",
"]  c #2996905CFD0D",
"[  c #838883888388",
"{  c #89FC89FC89FC",
"}  c #942494249424",
"|  c #9C909D349D41",
" . c #BE8BBE8B864E",
".. c #A1F7A1F7A1F7",
"X. c #ACACACACACAC",
"o. c #B4F3B4F3A7DE",
"O. c #B8F8B8F8ABD3",
"+. c #B33AB33AB33A",
"@. c #BD73BD73B66F",
"#. c #BDD1BDD2BDD4",
"$. c #FA3F9F2A9F2A",
"%. c #EB85AF2DAF2D",
"&. c #F1D6A738A738",
"*. c #FCC6A68EA6C5",
"=. c #FF33A8BDA6E8",
"-. c #FFFFAB45AB45",
";. c #FE7EB37CB37C",
":. c #9313AAAEFE1B",
">. c #B028BF79FD06",
",. c #B060BFD4FD32",
"<. c #B029C093FE20",
"1. c #C321C321C41C",
"2. c #CB6CCB6CCBB5",
"3. c #D5EFD5EFD5EF",
"4. c #D813D87FD87F",
"5. c #DE76DEBDDEBD",
"6. c #F338DA8ADA8A",
"7. c #E2FBCF03E53D",
"8. c #E3ECE3ECE3EC",
"9. c #EE57EE57E2FF",
"0. c #EE1DEE40EE3C",
"q. c #F1D1E5B0E5B0",
"w. c #FE2CE636E56B",
"e. c #E5A4E5A5FD28",
"r. c #F451F45AF451",
"t. c #FED1F484F395",
"y. c #F8E2F7C3FCF8",
"u. c #FDB5FDCDFDAF",
"i. c None",
/* pixels */
"i.i.i.i.i.i.i.i.i.i.i.i.i.i.i.{ X.X.i.i.i.i.i.i.i.i.i.i.i.i.i.i.",
"i.i.i.i.i.i.i.i.i.i.i.i.i.i.X.3.y.r.X.i.i.i.i.i.i.i.i.i.i.i.i.i.",
"i.i.i.i.i.i.i.i.i.i.i.{ X.3.r.u.u.u.r.X.i.i.i.i.i.i.i.i.i.i.i.i.",
"i.i.i.i.i.i.i.i.i.{ X.3.r.u.u.u.u.u.u.r.X.i.i.i.i.i.i.i.i.i.i.i.",
"i.i.i.i.i.i.i.{ X.3.r.u.u.e.y.u.u.u.u.u.r.X.i.i.i.i.i.i.i.i.i.i.",
"i.i.i.i.i.{ X.3.r.u.u.u.>.] >.u.u.w.y.u.u.r.X.i.i.i.i.i.i.i.i.i.",
"i.i.i.{ X.3.r.u.u.u.u.u.,.] >.u.*.k t.u.u.u.r.X.i.i.i.i.i.i.i.i.",
"i.i.X.3.r.u.u.e.y.u.y.e.y.e.y.*.h 7.:.e.u.u.u.r.X.i.i.i.i.i.i.i.",
"5 +.y.u.u.u.>.] >.u.>.] ,.u.*.h w.:.' :.u.u.u.u.r.X.i.i.i.i.i.i.",
"* | 3.u.u.u.>.] >.u.>.] <.=.h w.u.e.:.e.u.u.u.u.u.r.X.i.i.i.i.i.",
"= +...3.0.0.u.e.y.u.y.e.*.h w.u.u.u.u.u.u.u.u.y.r.u.r.X.i.i.i.i.",
"= #.#...} 4 #.r.u.u.u.=.h w.u.u.u.u.u.u.u.u.u.r.{ } r.r.X.i.i.i.",
"= #.1.+.{ 5 ; 5.r.u.*.h 7.:.e.u.u.u.u.u.r.2.3.{ 3 { 0.u.r.X.i.i.",
"= #.#...2.r.| - #.-.h w.:.' :.u.u.y.r.u.3.= = X.r.r.y.u.u.r.X.i.",
"= +...3.u.u.4.| : r 6.u.e.:.e.u.u.0.[ 6 ; } X.3.8.5.5.5.5.8.0.+.",
"* | 3.u.u.u.u.&.s - 5.r.u.u.r.2.3.{ * 3 X.1.1.#.#.#.#.#.#.1.r.y.",
"* 2.u.u.u.u.*.h q.| - #.u.u.3.= = ..#.@.#.1.1.1.1.1.1.1.1.2.y.u.",
"+ | r.u.u.*.h w.u.4.| 4 2.{ 4 +.2.0.2.1.@.W T R R R R R R E  .9.",
"i.+ | r.w.k w.y.r.u.4.* o } 8.u.u.r.1.1.O.m N B B B B B B B B ! ",
"i.i.+ | r.t.u.0.{ 6 4 +.| ; #.u.u.r.1.1.O.M F V v Q Q Q Q v V P ",
"i.i.i.+ | r.u.#.3 [ 8.u.4.| 4 #.r.r.1.1.O.M C l ) ) ( ) ) ( ` Z ",
"i.i.i.i.+ | r.0.0.r.y.u.u.r.[ 3 0.y.1.1.O.M C x _ / z _ / z c J ",
"i.i.i.i.i.+ | r.u.u.u.u.u.y.0.#.0.r.1.1.O.M G S A L A A L A S U ",
"i.i.i.i.i.i.@ | r.u.u.u.u.u.u.u.u.r.2.1.o.M D 2 ^ H 1 ^ H 1 ^ K ",
"i.i.p p p p 9 # | r.u.u.u.u.u.u.u.y.1.| , b D % 2 H % 2 H % < Y ",
"i.p p p i.p p 8 @ | r.u.u.u.u.u.0.@.3 o X & I H H U H H U H H U ",
"i.p p i.i.i.i.i.i.e g $.t.;.k j d O     . b D 2 ~ H 2 ~ H 2 ^ K ",
"p p p i.i.p i.i.i.p u f %.a q t y i.    . b D % 2 H % 2 H % < Y ",
"p p p i.i.p p p i.p 0 $ > w 0 i p i.  i.X b I H H U H H U H H U ",
"i.p p i.i.i.p p i.p p i.7 p i.p p i.i.i.  b D 2 ~ H 2 ~ H 2 ^ K ",
"i.i.p p p p p p i.p i.i.i.p p p p i.i.i.i.n D % 2 H % 2 H % < Y ",
"i.i.i.p p p i.i.i.i.i.i.i.i.i.i.i.i.i.i.i.i.I G G U G G U G G U "
};
