/* XPM */
static char *application_x_ngraph[] = {
/* columns rows colors chars-per-pixel */
"32 32 130 2",
"   c #02CA02CA02CA",
".  c #07CF05190519",
"X  c #0D240C480000",
"o  c #12BD12BD05A9",
"O  c #0000121D121D",
"+  c #000030343123",
"@  c #000039EF3ACF",
"#  c #266F2600263C",
"$  c #2D242C6C2C6C",
"%  c #57305730190C",
"&  c #7FCA7FCA0000",
"*  c #2AF044414441",
"=  c #0B4A653359EA",
"-  c #000465926592",
";  c #063D6CE86CE8",
":  c #037E769376A1",
">  c #285166EA66EA",
",  c #2DB56BD46BD4",
"<  c #4D7D4D7D4D7D",
"1  c #5373537D537D",
"2  c #5D6856245624",
"3  c #5C6C5C6C5C6C",
"4  c #6C1E48784878",
"5  c #67EE67EE5ADA",
"6  c #5775577567A7",
"7  c #5806571367E0",
"8  c #573357226891",
"9  c #62E562E562E5",
"0  c #69B366D866D8",
"q  c #6D3D6D3D6D3D",
"w  c #73C873C873C8",
"e  c #7C6D7C6D7C6D",
"r  c #BF4F3B1C3B1C",
"t  c #808E45CB45CB",
"y  c #FD0C6870680A",
"u  c #FD8178F2786A",
"i  c #7A91900B157A",
"p  c #1C7B94517DCF",
"a  c #1BB29AB77E0C",
"s  c #3601A2146B1A",
"d  c #368DADD1764D",
"f  c #5544B20D5CC9",
"g  c #7FF1C570457F",
"h  c #5740C5386E5F",
"j  c #65BECB146556",
"k  c #835C831E0235",
"l  c #8D278D2B1500",
"z  c #962395AB146D",
"x  c #B6C7B6840000",
"c  c #C248BF990041",
"v  c #8F7DCC5A3CDC",
"b  c #D4DFE1840B9A",
"n  c #DE0EEC830F47",
"m  c #D57FE2BB1ADD",
"M  c #D8DFE5291B61",
"N  c #E3CCE2CF0000",
"B  c #E34AEA2D0577",
"V  c #EE04EE3C0000",
"C  c #E302E2EE0C20",
"Z  c #E162EEC30D6B",
"A  c #EF09EEFF0E2A",
"S  c #E3B7F12C0BC0",
"D  c #EE73F61B07A8",
"F  c #F364F2760000",
"G  c #FEC0FEEC000B",
"H  c #EEFEEEFE10EC",
"J  c #9E459E455FAA",
"K  c #9E359E356056",
"L  c #A12BA12B62ED",
"P  c #A3DBA3DB6ADD",
"I  c #80DFC6464567",
"U  c #E04DE003439C",
"Y  c #57345734A654",
"T  c #58095720A577",
"R  c #00008C988C98",
"E  c #1B7D9F8E8423",
"W  c #00008D4894F0",
"Q  c #0000932C9403",
"!  c #0000951F9C4D",
"~  c #1BB2A05C83B1",
"^  c #1D36A4928D49",
"/  c #5E999E7E9E7E",
"(  c #0474979AFCF1",
")  c #2996905CFD0D",
"_  c #0007CD61CD61",
"`  c #0286D67ED67E",
"'  c #0000EEAEEEAE",
"]  c #0000F32FF32F",
"[  c #0000FCFFFCFF",
"{  c #838883888388",
"}  c #89FC89FC89FC",
"|  c #942494249424",
" . c #9D109CDE9CEB",
".. c #BE8BBE8B864E",
"X. c #9E7CA180A180",
"o. c #A1F7A1F7A1F7",
"O. c #ACACACACACAC",
"+. c #B4F3B4F3A7DE",
"@. c #B8F8B8F8ABD3",
"#. c #B33AB33AB33A",
"$. c #B9CFB802B802",
"%. c #BD73BD73B66F",
"&. c #BDA1BDA1BDA2",
"*. c #F1D6A738A738",
"=. c #FCC6A68EA6C5",
"-. c #FF33A8BDA6E8",
";. c #FFFFAB45AB45",
":. c #9313AAAEFE1B",
">. c #B028BF79FD06",
",. c #B060BFD4FD32",
"<. c #B029C093FE20",
"1. c #C321C321C41C",
"2. c #CB6CCB6CCBB5",
"3. c #D5EFD5EFD5EF",
"4. c #D813D87FD87F",
"5. c #DE76DEBDDEBD",
"6. c #F338DA8ADA8A",
"7. c #E2FBCF03E53D",
"8. c #E3ECE3ECE3EC",
"9. c #E91FE6B1E6B1",
"0. c #EE57EE57E2FF",
"q. c #EE41EE41EE3C",
"w. c #F1D1E5B0E5B0",
"e. c #FE2CE636E56B",
"r. c #E5A4E5A5FD28",
"t. c #F45BF454F44A",
"y. c #FF07F547F3E0",
"u. c #F8E2F7C3FCF8",
"i. c #FDBEFDC4FDA7",
"p. c None",
/* pixels */
"p.p.p.p.p.p.p.p.p.p.p.p.p.p.p.} O.O.p.p.p.p.p.p.p.p.p.p.p.p.p.p.",
"p.p.p.p.p.p.p.p.p.p.p.p.p.p.O.3.u.t.O.p.p.p.p.p.p.p.p.p.p.p.p.p.",
"p.p.p.p.p.p.p.p.p.p.p.} O.3.t.i.i.i.t.O.p.p.p.p.p.p.p.p.p.p.p.p.",
"p.p.p.p.p.p.p.p.p.} O.3.t.i.i.i.i.i.i.t.O.p.p.p.p.p.p.p.p.p.p.p.",
"p.p.p.p.p.p.p.} O.3.t.i.i.r.u.i.i.i.i.i.t.O.p.p.p.p.p.p.p.p.p.p.",
"p.p.p.p.p.} O.3.t.i.i.i.>.) >.i.i.e.u.i.i.t.O.p.p.p.p.p.p.p.p.p.",
"p.p.p.} O.3.t.i.i.i.i.i.,.) >.i.=.u y.i.i.i.t.O.p.p.p.p.p.p.p.p.",
"p.p.O.3.t.i.i.r.u.i.u.r.u.r.u.=.y 7.:.r.i.i.i.t.O.p.p.p.p.p.p.p.",
"w #.u.i.i.i.>.) >.i.>.) ,.i.=.y e.:.( :.i.i.i.i.t.O.p.p.p.p.p.p.",
"<  .3.i.i.i.>.) >.i.>.) <.-.y e.i.r.:.r.i.i.i.i.i.t.O.p.p.p.p.p.",
"1 #.o.3.q.q.i.r.u.i.u.r.=.y e.i.i.i.i.i.i.i.i.u.t.i.t.O.p.p.p.p.",
"1 &.$.o.| q &.t.i.i.i.-.y e.i.i.i.i.i.i.i.i.i.t.} | t.t.O.p.p.p.",
"1 $.1.#.} w 3 5.t.i.=.y 7.:.r.i.i.i.i.i.t.2.3.} 9 } q.i.t.O.p.p.",
"1 &.$.o.2.t. .2 &.;.y e.:.( :.i.i.u.t.i.3.1 1 O.t.t.u.i.i.t.O.p.",
"1 #.o.3.i.i.4. .4 r 6.i.r.:.r.i.i.q.{ e 3 | O.3.8.5.5.5.5.8.q.#.",
"<  .3.i.i.i.i.*.t 2 5.t.i.i.t.2.3.} < 9 O.1.1.&.&.&.&.&.&.1.t.u.",
"< 2.i.i.i.i.=.y w. .2 &.i.i.3.1 1 o.&.$.&.1.1.1.1.1.1.1.1.2.u.i.",
"$  .t.i.i.=.y e.i.4. .q 2.} q #.2.q.2.1.%.P J K K K K K K L ..0.",
"p.$  .t.e.u e.u.t.i.4.< # | 9.i.i.t.1.1.@.l x c c c c c c c c U ",
"p.p.$  .t.y.i.q.} e q #. .3 &.i.i.t.1.1.@.z B v g I I I I g v D ",
"p.p.p.$  .t.i.&.9 { 8.i.4. .q &.t.t.1.1.@.z b p ! ! W ! ! W ^ n ",
"p.p.p.p.$  .t.q.q.t.u.i.i.t.{ 9 q.u.1.1.@.z b s ~ E a ~ E a d Z ",
"p.p.p.p.p.$  .t.i.i.i.i.i.u.q.&.q.t.1.1.@.z V M m S m m S m M G ",
"p.p.p.p.p.p.$  .t.i.i.i.i.i.i.i.i.t.2.1.+.z N 8 T C 7 T C 7 T A ",
"p.p.p.p.p.p.p.* X.t.i.i.i.i.i.i.i.u.1. .5 k N % 8 C % 8 C % 6 H ",
"[ [ p.p.p.p.[ _ *  .t.i.i.i.i.i.q.$.0 # o & F C C G C C G C C G ",
"[ [ [ p.p.p.[ [ p.$  .t.i.i.q.$.0 # .   X k N 8 Y C 8 Y C 8 T A ",
"[ [ [ [ p.p.[ [ p.p.$  .9.$.0 # . p.O + X k N % 8 C % 8 C % 6 H ",
"[ [ p.[ [ p.[ [ p.p.- , / > ; p.p.p.@ Q = i F C C G C C G C C G ",
"[ [ p.p.[ [ [ [ p.p.p.` : R [ [ p.p.R : @ f N 8 Y C 8 Y C 8 T A ",
"[ [ p.p.p.[ [ [ p.p.' ] p.p.p.[ [ p.p.p.p.h N % 8 C % 8 C % 6 H ",
"[ [ p.p.p.p.[ [ p.[ [ p.p.p.p.p.p.p.p.p.p.j F V V G V V G V V G "
};
