<?xml version="1.0" encoding="UTF-8" standalone="no"?>
<!-- Created with Inkscape (http://www.inkscape.org/) -->

<svg
   xmlns:dc="http://purl.org/dc/elements/1.1/"
   xmlns:cc="http://creativecommons.org/ns#"
   xmlns:rdf="http://www.w3.org/1999/02/22-rdf-syntax-ns#"
   xmlns:svg="http://www.w3.org/2000/svg"
   xmlns="http://www.w3.org/2000/svg"
   version="1.1"
   width="64"
   height="64"
   id="svg2">
  <defs
     id="defs4" />
  <metadata
     id="metadata7">
    <rdf:RDF>
      <cc:Work
         rdf:about="">
        <dc:format>image/svg+xml</dc:format>
        <dc:type
           rdf:resource="http://purl.org/dc/dcmitype/StillImage" />
        <dc:title></dc:title>
      </cc:Work>
    </rdf:RDF>
  </metadata>
  <g
     transform="translate(0,-988.3622)"
     id="layer1"
     style="display:inline">
    <rect
       width="23.625"
       height="27"
       x="36.3125"
       y="1017.2997"
       id="rect4066"
       style="fill:#000000;fill-opacity:1;stroke:none;display:inline" />
    <path
       d="m 0.5,1006.6122 33.125,-16.25 34.75,34.375 -44.375,22.875 -23.5,-23.375 z"
       id="path3007-6"
       style="fill:#000000;stroke:#000000;stroke-width:1px;stroke-linecap:butt;stroke-linejoin:miter;stroke-opacity:1;display:inline" />
    <path
       d="M 1.5,16.625 34.5,0.125 69.25,34.5 24.875,57.375 1.5,34.25 z"
       transform="translate(0,988.3622)"
       id="path3914"
       style="fill:#ffffff;fill-opacity:1;stroke:none" />
    <path
       d="M 1.625,16.875 9.5,25 1.625,32.75"
       transform="translate(0,988.3622)"
       id="path3777"
       style="fill:#e6e6e6;stroke:#808080;stroke-width:1px;stroke-linecap:butt;stroke-linejoin:miter;stroke-opacity:1" />
    <path
       d="M 1.5,16.625 34.5,0.125 69.25,34.5 24.875,57.375 1.5,34.25 z"
       transform="translate(0,988.3622)"
       id="path3007"
       style="fill:none;stroke:#808080;stroke-width:1px;stroke-linecap:butt;stroke-linejoin:miter;stroke-opacity:1" />
    <rect
       width="23.625"
       height="27"
       x="36.3125"
       y="1017.2997"
       id="rect3934-3"
       style="opacity:0.09144544;fill:#000000;fill-opacity:1;stroke:none;display:inline" />
    <rect
       width="20.125"
       height="23.375"
       x="41.6875"
       y="1023.1747"
       id="rect3934-9-2"
       style="fill:#808000;fill-opacity:1;stroke:none;display:inline" />
    <rect
       width="19.875"
       height="26.875"
       x="43.0625"
       y="1024.2997"
       id="rect3934-9"
       style="fill:#808000;fill-opacity:1;stroke:none;display:inline" />
    <path
       d="m 16.125,1020.0497 3.75,-2.125"
       id="path3807-4"
       style="fill:none;stroke:#000000;stroke-width:1px;stroke-linecap:butt;stroke-linejoin:miter;stroke-opacity:1;display:inline" />
    <path
       d="m 9.625,22.375 22,22.125"
       transform="translate(0,988.3622)"
       id="path3781"
       style="fill:none;stroke:#000000;stroke-width:1px;stroke-linecap:butt;stroke-linejoin:miter;stroke-opacity:1" />
    <path
       d="M 10.5,37 35.125,12.125"
       transform="translate(0,988.3622)"
       id="path3779"
       style="fill:none;stroke:#ff0000;stroke-width:1px;stroke-linecap:butt;stroke-linejoin:miter;stroke-opacity:1" />
    <path
       d="m 15.75,41.25 35.375,-18"
       transform="translate(0,988.3622)"
       id="path3783"
       style="fill:none;stroke:#000000;stroke-width:1px;stroke-linecap:butt;stroke-linejoin:miter;stroke-opacity:1" />
    <path
       d="M 16.375,38.25 19.5,41.5"
       transform="translate(0,988.3622)"
       id="path3785"
       style="fill:none;stroke:#000000;stroke-width:1px;stroke-linecap:butt;stroke-linejoin:miter;stroke-opacity:1" />
    <path
       d="m 30.5,31.25 3.125,3.5"
       transform="translate(0,988.3622)"
       id="path3787"
       style="fill:none;stroke:#000000;stroke-width:1px;stroke-linecap:butt;stroke-linejoin:miter;stroke-opacity:1" />
    <path
       d="m 36.375,28.5 3.25,3.125"
       transform="translate(0,988.3622)"
       id="path3789"
       style="fill:none;stroke:#000000;stroke-width:1px;stroke-linecap:butt;stroke-linejoin:miter;stroke-opacity:1" />
    <path
       d="m 42.5,25.375 3.125,3.25"
       transform="translate(0,988.3622)"
       id="path3791"
       style="fill:none;stroke:#000000;stroke-width:1px;stroke-linecap:butt;stroke-linejoin:miter;stroke-opacity:1" />
    <path
       d="m 48.25,22.5 3.125,3.125"
       transform="translate(0,988.3622)"
       id="path3793"
       style="fill:none;stroke:#000000;stroke-width:1px;stroke-linecap:butt;stroke-linejoin:miter;stroke-opacity:1" />
    <path
       d="M 10.125,25.625 13.875,23.5"
       transform="translate(0,988.3622)"
       id="path3807"
       style="fill:none;stroke:#000000;stroke-width:1px;stroke-linecap:butt;stroke-linejoin:miter;stroke-opacity:1" />
    <path
       d="m 13.25,1017.0497 3.75,-2.125"
       id="path3807-6"
       style="fill:none;stroke:#000000;stroke-width:1px;stroke-linecap:butt;stroke-linejoin:miter;stroke-opacity:1;display:inline" />
    <path
       d="m 19,1023.0497 3.75,-2.125"
       id="path3807-9"
       style="fill:none;stroke:#000000;stroke-width:1px;stroke-linecap:butt;stroke-linejoin:miter;stroke-opacity:1;display:inline" />
    <path
       d="m 25.125,1029.0497 3.75,-2.125"
       id="path3807-2"
       style="fill:none;stroke:#000000;stroke-width:1px;stroke-linecap:butt;stroke-linejoin:miter;stroke-opacity:1;display:inline" />
    <path
       d="m 28.125,1032.1747 3.75,-2.125"
       id="path3807-60"
       style="fill:none;stroke:#000000;stroke-width:1px;stroke-linecap:butt;stroke-linejoin:miter;stroke-opacity:1;display:inline" />
    <path
       d="m 15.75,17.5 a 1.5,1.125 0 1 1 -3,0 1.5,1.125 0 1 1 3,0 z"
       transform="translate(0.75,988.8622)"
       id="path3855"
       style="fill:#00ffff;fill-opacity:1;stroke:#0000ff;stroke-width:1;stroke-miterlimit:10;stroke-opacity:1;stroke-dasharray:none" />
    <path
       d="m 15.75,17.5 a 1.5,1.125 0 1 1 -3,0 1.5,1.125 0 1 1 3,0 z"
       transform="translate(8.625,988.8622)"
       id="path3855-2"
       style="fill:#00ffff;fill-opacity:1;stroke:#0000ff;stroke-width:1;stroke-miterlimit:10;stroke-opacity:1;stroke-dasharray:none;display:inline" />
    <path
       d="m 15.75,17.5 a 1.5,1.125 0 1 1 -3,0 1.5,1.125 0 1 1 3,0 z"
       transform="translate(12.625,982.7372)"
       id="path3855-6"
       style="fill:#00ffff;fill-opacity:1;stroke:#0000ff;stroke-width:1;stroke-miterlimit:10;stroke-opacity:1;stroke-dasharray:none;display:inline" />
    <path
       d="m 15.75,17.5 a 1.5,1.125 0 1 1 -3,0 1.5,1.125 0 1 1 3,0 z"
       transform="translate(22.875,987.8622)"
       id="path3855-66"
       style="fill:#00ffff;fill-opacity:1;stroke:#0000ff;stroke-width:1;stroke-miterlimit:10;stroke-opacity:1;stroke-dasharray:none;display:inline" />
    <path
       d="m 15.75,17.5 a 1.5,1.125 0 1 1 -3,0 1.5,1.125 0 1 1 3,0 z"
       transform="translate(12.625,997.7372)"
       id="path3855-4"
       style="fill:#00ffff;fill-opacity:1;stroke:#0000ff;stroke-width:1;stroke-miterlimit:10;stroke-opacity:1;stroke-dasharray:none;display:inline" />
    <rect
       width="19.875"
       height="26.875"
       x="44.125"
       y="1025.4872"
       id="rect3934"
       style="fill:#ffff00;fill-opacity:1;stroke:none" />
    <path
       d="m 54.125,58.5 a 1.625,1.625 0 1 1 -0.07059,0.0015"
       transform="translate(-0.125,988.2372)"
       id="path3946"
       style="fill:#000080;fill-opacity:1;stroke:none" />
    <path
       d="m 54.125,58.5 a 1.625,1.625 0 1 1 -0.07059,0.0015"
       transform="translate(5.75,988.2372)"
       id="path3946-5"
       style="fill:#000080;fill-opacity:1;stroke:none;display:inline" />
    <path
       d="m 54.125,58.5 a 1.625,1.625 0 1 1 -0.07059,0.0015"
       transform="translate(-6.125,988.2372)"
       id="path3946-4"
       style="fill:#000080;fill-opacity:1;stroke:none;display:inline" />
    <path
       d="m 54.125,58.5 a 1.625,1.625 0 1 1 -0.07059,0.0015"
       transform="translate(-0.1875,982.2372)"
       id="path3946-9"
       style="fill:#000080;fill-opacity:1;stroke:none;display:inline" />
    <path
       d="m 54.125,58.5 a 1.625,1.625 0 1 1 -0.07059,0.0015"
       transform="translate(5.6875,982.2372)"
       id="path3946-5-8"
       style="fill:#000080;fill-opacity:1;stroke:none;display:inline" />
    <path
       d="m 54.125,58.5 a 1.625,1.625 0 1 1 -0.07059,0.0015"
       transform="translate(-6.1875,982.2372)"
       id="path3946-4-3"
       style="fill:#000080;fill-opacity:1;stroke:none;display:inline" />
    <path
       d="m 54.125,58.5 a 1.625,1.625 0 1 1 -0.07059,0.0015"
       transform="translate(-0.1875,976.1122)"
       id="path3946-2"
       style="fill:#000080;fill-opacity:1;stroke:none;display:inline" />
    <path
       d="m 54.125,58.5 a 1.625,1.625 0 1 1 -0.07059,0.0015"
       transform="translate(5.6875,976.1122)"
       id="path3946-5-6"
       style="fill:#000080;fill-opacity:1;stroke:none;display:inline" />
    <path
       d="m 54.125,58.5 a 1.625,1.625 0 1 1 -0.07059,0.0015"
       transform="translate(-6.1875,976.1122)"
       id="path3946-4-2"
       style="fill:#000080;fill-opacity:1;stroke:none;display:inline" />
    <rect
       width="16"
       height="5"
       x="45.875"
       y="39"
       transform="translate(0,988.3622)"
       id="rect4008"
       style="fill:#008000;fill-opacity:1;stroke:none" />
    <g
       id="text4010"
       style="font-size:4px;font-style:normal;font-weight:normal;line-height:125%;letter-spacing:0px;word-spacing:0px;fill:#00ff00;fill-opacity:1;stroke:none;font-family:Sans">
      <path
         d="m 52.9,1028.3322 0,-0.01 -1.25,0 0,-0.36 1.725,0 0,0.36 -0.9,1.145 0,0.01 0.05,0 c 0.303332,0 0.524998,0.085 0.665,0.255 0.139998,0.17 0.209998,0.4467 0.21,0.83 -2e-6,0.7333 -0.325002,1.1 -0.975,1.1 -0.243334,0 -0.485001,-0.05 -0.725,-0.15 l 0,-0.435 c 0.256666,0.1433 0.473332,0.215 0.65,0.215 0.213332,0 0.371665,-0.057 0.475,-0.17 0.103332,-0.1167 0.154998,-0.3033 0.155,-0.56 -2e-6,-0.2967 -0.04167,-0.4917 -0.125,-0.585 -0.08333,-0.093 -0.251668,-0.14 -0.505,-0.14 l -0.35,0 0,-0.36 0.9,-1.145"
         id="path4015"
         style="font-size:5px" />
      <path
         d="m 54.675,1031.6122 0,-0.75 0.65,0 0,0.75 -0.65,0"
         id="path4017"
         style="font-size:5px" />
      <path
         d="m 57.54,1031.6122 0,-3.225 -0.01,0 -0.865,0.505 0,-0.4 0.875,-0.525 0.41,0 0,3.65 -0.41,0"
         id="path4019"
         style="font-size:5px" />
      <path
         d="m 60.215,1028.6622 -0.01,0 -0.875,1.705 0,0.01 0.885,0 0,-1.715 m 0,2.075 -1.265,0 0,-0.41 1.215,-2.365 0.46,0 0,2.415 0.425,0 0,0.36 -0.425,0 0,0.875 -0.41,0 0,-0.875"
         id="path4021"
         style="font-size:5px" />
    </g>
  </g>
  <g
     id="text3026"
     style="font-size:20px;font-style:normal;font-weight:bold;line-height:125%;letter-spacing:0px;word-spacing:0px;fill:#0000ff;fill-opacity:1;stroke:none;font-family:Sans;-inkscape-font-specification:Sans Bold">
    <path
       d="m 11.232422,46.878906 0,3.085938 C 10.431629,49.606782 9.6503802,49.3366 8.8886719,49.154297 8.1269442,48.972017 7.4075439,48.880871 6.7304687,48.880859 c -0.898444,1.2e-5 -1.5625059,0.12371 -1.9921875,0.371094 -0.4296925,0.247407 -0.644536,0.631522 -0.6445312,1.152344 -4.8e-6,0.390635 0.1432242,0.696624 0.4296875,0.917969 0.2929632,0.214853 0.8203064,0.4004 1.5820312,0.55664 l 1.6015625,0.322266 c 1.6210837,0.325529 2.7734268,0.82032 3.4570318,1.484375 0.683581,0.664069 1.025377,1.608078 1.02539,2.832031 -1.3e-5,1.608076 -0.478528,2.805991 -1.435547,3.59375 -0.9505311,0.78125 -2.4056078,1.171875 -4.3652341,1.171875 -0.9244854,0 -1.8522189,-0.08789 -2.7832031,-0.263672 C 2.6744757,60.84375 1.7434871,60.583334 0.8125,60.238281 l 0,-3.173828 c 0.9309871,0.494795 1.8294237,0.869144 2.6953125,1.123047 0.8723907,0.247398 1.7122336,0.371096 2.5195312,0.371094 0.820305,2e-6 1.4485595,-0.136716 1.8847657,-0.410157 C 8.3482982,57.875003 8.5663969,57.484379 8.5664063,56.976562 8.5663969,56.520838 8.4166575,56.169276 8.1171875,55.921875 7.8242102,55.674484 7.2350181,55.453131 6.3496094,55.257812 L 4.8945312,54.935547 C 3.4361937,54.623053 2.3684865,54.125007 1.6914062,53.441406 1.0208316,52.757821 0.68554544,51.836598 0.68554687,50.677734 0.68554544,49.225923 1.154295,48.109388 2.0917969,47.328125 3.0292931,46.546889 4.376948,46.156265 6.1347656,46.15625 c 0.8007736,1.5e-5 1.6243405,0.06186 2.4707032,0.185547 0.8463439,0.117202 1.7219942,0.296238 2.6269532,0.537109"
       id="path3054"
       style="letter-spacing:-0.5px;-inkscape-font-specification:Sans Bold" />
    <path
       d="m 18.422852,55.702148 0,1.425782 c -0.237636,-0.162757 -0.476893,-0.283199 -0.717774,-0.361328 -0.237634,-0.07812 -0.48503,-0.117184 -0.742187,-0.117188 -0.488285,4e-6 -0.869144,0.143233 -1.142578,0.429688 -0.270185,0.283206 -0.405276,0.680341 -0.405274,1.191406 -2e-6,0.51107 0.135089,0.909832 0.405274,1.196289 0.273434,0.283204 0.654293,0.424806 1.142578,0.424805 0.273433,1e-6 0.532222,-0.04069 0.776367,-0.122071 0.247391,-0.08138 0.475255,-0.201821 0.683594,-0.361328 l 0,1.430664 c -0.273443,0.100912 -0.551763,0.175781 -0.834961,0.22461 -0.279952,0.05208 -0.561528,0.07812 -0.844727,0.07813 -0.986331,-10e-7 -1.757814,-0.252279 -2.314453,-0.756836 -0.556641,-0.507812 -0.834961,-1.212564 -0.834961,-2.114258 0,-0.901689 0.27832,-1.604814 0.834961,-2.109375 0.556639,-0.507807 1.328122,-0.761713 2.314453,-0.761719 0.286455,6e-6 0.56803,0.02605 0.844727,0.07813 0.279943,0.04883 0.558263,0.123703 0.834961,0.224609"
       id="path3056"
       style="font-size:10px;-inkscape-font-specification:Sans Bold" />
    <path
       d="m 23.503906,57.020508 c -0.152999,-0.07161 -0.305994,-0.123694 -0.458984,-0.15625 -0.149744,-0.0358 -0.301111,-0.05371 -0.454102,-0.05371 -0.449222,4e-6 -0.795901,0.144861 -1.040039,0.43457 -0.240888,0.286462 -0.36133,0.698245 -0.361328,1.235352 l 0,2.519531 -1.748047,0 0,-5.46875 1.748047,0 0,0.898437 c 0.224607,-0.358067 0.481768,-0.618484 0.771484,-0.78125 0.292966,-0.16601 0.6429,-0.249017 1.049805,-0.249023 0.05859,6e-6 0.122066,0.0033 0.19043,0.0098 0.06836,0.0033 0.167638,0.01303 0.297851,0.0293 l 0.0049,1.582031"
       id="path3058"
       style="font-size:10px;-inkscape-font-specification:Sans Bold" />
    <path
       d="m 23.882812,55.53125 1.748047,0 0,5.46875 -1.748047,0 0,-5.46875 m 0,-2.128906 1.748047,0 0,1.425781 -1.748047,0 0,-1.425781"
       id="path3060"
       style="font-size:10px;-inkscape-font-specification:Sans Bold" />
    <path
       d="m 28.568359,60.208984 0,2.871094 -1.748047,0 0,-7.548828 1.748047,0 0,0.800781 c 0.240883,-0.319005 0.50781,-0.55338 0.800782,-0.703125 0.292965,-0.152989 0.629878,-0.229486 1.010742,-0.229492 0.673823,6e-6 1.227208,0.26856 1.660156,0.805664 0.432936,0.533859 0.649407,1.222334 0.649414,2.06543 -7e-6,0.843101 -0.216478,1.533204 -0.649414,2.070312 -0.432948,0.533855 -0.986333,0.800781 -1.660156,0.800782 -0.380864,-10e-7 -0.717777,-0.07487 -1.010742,-0.22461 -0.292972,-0.152994 -0.559899,-0.388997 -0.800782,-0.708008 m 1.16211,-3.540039 c -0.374353,5e-6 -0.662438,0.138351 -0.864258,0.415039 -0.19857,0.273442 -0.297854,0.668949 -0.297852,1.186524 -2e-6,0.51758 0.09928,0.914715 0.297852,1.191406 0.20182,0.273439 0.489905,0.410157 0.864258,0.410156 0.374345,10e-7 0.659175,-0.136717 0.854492,-0.410156 0.198563,-0.273436 0.297847,-0.670571 0.297851,-1.191406 -4e-6,-0.52083 -0.09929,-0.917965 -0.297851,-1.191406 -0.195317,-0.273434 -0.480147,-0.410152 -0.854492,-0.410157"
       id="path3062"
       style="font-size:10px;-inkscape-font-specification:Sans Bold" />
    <path
       d="m 35.397461,53.978516 0,1.552734 1.801758,0 0,1.25 -1.801758,0 0,2.319336 c -3e-6,0.253908 0.05045,0.426434 0.151367,0.517578 0.100909,0.08789 0.301104,0.131837 0.600586,0.131836 l 0.898438,0 0,1.25 -1.499024,0 c -0.690106,0 -1.180015,-0.143229 -1.469726,-0.429688 -0.28646,-0.289712 -0.429689,-0.779621 -0.429688,-1.469726 l 0,-2.319336 -0.869141,0 0,-1.25 0.869141,0 0,-1.552734 1.748047,0"
       id="path3064"
       style="font-size:10px;-inkscape-font-specification:Sans Bold" />
  </g>
</svg>
