<?xml version="1.0" encoding="UTF-8" standalone="no"?>
<svg
   xmlns:dc="http://purl.org/dc/elements/1.1/"
   xmlns:cc="http://creativecommons.org/ns#"
   xmlns:rdf="http://www.w3.org/1999/02/22-rdf-syntax-ns#"
   xmlns:svg="http://www.w3.org/2000/svg"
   xmlns="http://www.w3.org/2000/svg"
   xmlns:sodipodi="http://sodipodi.sourceforge.net/DTD/sodipodi-0.dtd"
   xmlns:inkscape="http://www.inkscape.org/namespaces/inkscape"
   width="24"
   height="24"
   viewBox="0 0 18.000001 18"
   version="1.1"
   id="svg4676"
   sodipodi:docname="ngraph_infowin-symbolic.svg"
   inkscape:version="0.92.3 (2405546, 2018-03-11)">
  <metadata
     id="metadata4682">
    <rdf:RDF>
      <cc:Work
         rdf:about="">
        <dc:format>image/svg+xml</dc:format>
        <dc:type
           rdf:resource="http://purl.org/dc/dcmitype/StillImage" />
        <dc:title />
      </cc:Work>
    </rdf:RDF>
  </metadata>
  <defs
     id="defs4680" />
  <sodipodi:namedview
     pagecolor="#ffffff"
     bordercolor="#666666"
     borderopacity="1"
     objecttolerance="10"
     gridtolerance="10"
     guidetolerance="10"
     inkscape:pageopacity="0"
     inkscape:pageshadow="2"
     inkscape:window-width="1366"
     inkscape:window-height="704"
     id="namedview4678"
     showgrid="true"
     units="px"
     inkscape:zoom="18.007537"
     inkscape:cx="16.883076"
     inkscape:cy="9.9844731"
     inkscape:window-x="0"
     inkscape:window-y="27"
     inkscape:window-maximized="1"
     inkscape:current-layer="svg4676"
     showguides="true"
     inkscape:guide-bbox="true">
    <inkscape:grid
       type="xygrid"
       id="grid6508" />
    <sodipodi:guide
       position="6.7500002,0"
       orientation="0,1"
       id="guide5526"
       inkscape:locked="false" />
    <sodipodi:guide
       position="-5.2500003,16.5"
       orientation="1,0"
       id="guide8952"
       inkscape:locked="false" />
  </sodipodi:namedview>
  <path
     id="path8949"
     style="font-style:normal;font-variant:normal;font-weight:bold;font-stretch:normal;font-size:medium;line-height:125%;font-family:'Galatia SIL';-inkscape-font-specification:'Galatia SIL Bold';letter-spacing:0px;word-spacing:0px;fill:#bebebe;fill-opacity:1;fill-rule:evenodd;stroke:none;stroke-width:0.75px;stroke-linecap:butt;stroke-linejoin:miter;stroke-opacity:1"
     d="M 17.25,9.0750008 A 8.25,8.25 0 0 1 9,17.325001 8.25,8.25 0 0 1 0.75,9.0750008 8.25,8.25 0 0 1 9,0.82500076 8.25,8.25 0 0 1 17.25,9.0750008 Z M 11.652347,15 v -0.331359 q -0.390625,-0.0085 -0.625,-0.08497 -0.22461,-0.08497 -0.341797,-0.237899 Q 10.568362,14.19284 10.5293,13.95494 10.5,13.717042 10.5,13.385682 V 6.7500002 H 6.5351595 v 0.3143666 q 0.3710938,0.042482 0.5957032,0.1019568 0.2246093,0.059474 0.3417968,0.2039135 0.1171875,0.1444387 0.1464844,0.3993306 0.039063,0.2548918 0.039063,0.6712153 v 4.944903 q 0,0.331359 -0.029297,0.569258 -0.029297,0.237899 -0.1464843,0.390834 -0.1074219,0.152935 -0.3320313,0.2379 -0.2246094,0.07647 -0.6152344,0.08497 v 0.331359 z M 10.5,3.7500001 Q 10.5,3.4179688 10.373047,3.1347657 10.255859,2.8515626 10.041016,2.6464845 9.8261729,2.4316407 9.533204,2.3144532 9.2500009,2.1875001 8.9179696,2.1875001 q -0.3320312,0 -0.6152343,0.1269531 Q 8.0195321,2.4316407 7.8046884,2.6464845 7.5996103,2.8515626 7.4726571,3.1347657 7.3554696,3.4179688 7.3554696,3.7500001 q 0,0.3320312 0.1171875,0.625 0.1269532,0.2832031 0.3320313,0.4980469 0.2148437,0.2148437 0.4980469,0.3417968 0.2832031,0.1171875 0.6152343,0.1171875 0.3320313,0 0.6152344,-0.1171875 Q 9.8261729,5.0878907 10.041016,4.873047 10.255859,4.6582032 10.373047,4.3750001 10.5,4.0820313 10.5,3.7500001 Z" />
</svg>
