<?xml version="1.0" encoding="UTF-8" standalone="no"?>
<svg
   xmlns:dc="http://purl.org/dc/elements/1.1/"
   xmlns:cc="http://creativecommons.org/ns#"
   xmlns:rdf="http://www.w3.org/1999/02/22-rdf-syntax-ns#"
   xmlns:svg="http://www.w3.org/2000/svg"
   xmlns="http://www.w3.org/2000/svg"
   xmlns:sodipodi="http://sodipodi.sourceforge.net/DTD/sodipodi-0.dtd"
   xmlns:inkscape="http://www.inkscape.org/namespaces/inkscape"
   width="56.692913pt"
   height="56.692913pt"
   viewBox="0 0 56.692913 56.692913"
   version="1.1"
   id="svg12"
   sodipodi:docname="ngraph_gauss-symbolic.svg"
   inkscape:version="0.92.3 (2405546, 2018-03-11)">
  <metadata
     id="metadata16">
    <rdf:RDF>
      <cc:Work
         rdf:about="">
        <dc:format>image/svg+xml</dc:format>
        <dc:type
           rdf:resource="http://purl.org/dc/dcmitype/StillImage" />
        <dc:title></dc:title>
      </cc:Work>
    </rdf:RDF>
  </metadata>
  <sodipodi:namedview
     pagecolor="#ffffff"
     bordercolor="#666666"
     borderopacity="1"
     objecttolerance="10"
     gridtolerance="10"
     guidetolerance="10"
     inkscape:pageopacity="0"
     inkscape:pageshadow="2"
     inkscape:window-width="1366"
     inkscape:window-height="704"
     id="namedview14"
     showgrid="false"
     inkscape:zoom="5.0802062"
     inkscape:cx="27.545709"
     inkscape:cy="37.795275"
     inkscape:window-x="0"
     inkscape:window-y="27"
     inkscape:window-maximized="1"
     inkscape:current-layer="svg12" />
  <defs
     id="defs5">
    <clipPath
       id="clip1">
      <path
         d="M 0 0 L 56.691406 0 L 56.691406 56.691406 L 0 56.691406 Z M 0 0 "
         id="path2" />
    </clipPath>
  </defs>
  <g
     id="surface56333"
     style="stroke:#bebebe;fill:none;stroke-opacity:1">
    <g
       clip-path="url(#clip1)"
       clip-rule="nonzero"
       id="g9"
       style="stroke:#bebebe;fill:none;stroke-opacity:1">
      <path
         style="color:#000000;font-style:normal;font-variant:normal;font-weight:normal;font-stretch:normal;font-size:medium;line-height:normal;font-family:sans-serif;font-variant-ligatures:normal;font-variant-position:normal;font-variant-caps:normal;font-variant-numeric:normal;font-variant-alternates:normal;font-feature-settings:normal;text-indent:0;text-align:start;text-decoration:none;text-decoration-line:none;text-decoration-style:solid;text-decoration-color:#000000;letter-spacing:normal;word-spacing:normal;text-transform:none;writing-mode:lr-tb;direction:ltr;text-orientation:mixed;dominant-baseline:auto;baseline-shift:baseline;text-anchor:start;white-space:normal;shape-padding:0;clip-rule:nonzero;display:inline;overflow:visible;visibility:visible;opacity:1;isolation:auto;mix-blend-mode:normal;color-interpolation:sRGB;color-interpolation-filters:linearRGB;solid-color:#000000;solid-opacity:1;vector-effect:none;fill:#bebebe;fill-opacity:1;fill-rule:nonzero;stroke:none;stroke-width:10.5;stroke-linecap:butt;stroke-linejoin:miter;stroke-miterlimit:10;stroke-dasharray:none;stroke-dashoffset:0;stroke-opacity:1;color-rendering:auto;image-rendering:auto;shape-rendering:auto;text-rendering:auto;enable-background:accumulate"
         d="m 28.347656,1.1757812 -1.609375,0.1953126 -1.160156,0.5 -0.871094,0.4960937 -0.939453,0.7910156 -0.460937,0.5644531 -0.482422,0.5996094 -0.386719,0.6582032 -0.349609,0.5878906 -0.246094,0.4980468 -0.298828,0.6230469 -0.53711,1.2792969 -0.300781,0.7832031 -0.302734,0.9140625 -0.347656,1.1074224 -0.183594,0.572265 -0.347656,1.162109 -0.355469,1.15625 -0.03711,0.154297 -0.357421,1.238282 -0.425782,1.443359 -0.18164,0.626953 -0.654297,2.328125 -0.08398,0.296875 -0.396484,1.433594 -0.320312,1.09375 -0.277344,0.916015 -0.554688,1.835938 -0.160156,0.5625 -0.294922,0.9375 -0.199219,0.580078 -0.03906,0.08203 -0.414063,1.240235 -0.300781,0.830078 -0.01758,0.0332 -0.542969,1.443359 -0.34375,0.902344 -0.324218,0.800781 -0.359376,0.833985 -0.113281,0.21875 -0.382812,0.826172 -0.248047,0.501953 -0.22461,0.398437 -0.607421,1.152344 -0.01172,0.02344 -0.375,0.648437 -0.341797,0.601563 -0.125,0.21875 -0.4804688,0.71289 -0.017578,0.02344 -0.4042969,0.566406 -0.3496093,0.496094 -0.037109,0.05469 -0.4394531,0.501953 -0.3867188,0.439453 -0.4433594,0.5 -0.046875,0.05469 -0.3632812,0.345703 -0.1308594,0.115234 -0.7539062,0.648438 -0.5,0.408203 L 5.4511719,43.226562 4.7695312,43.699219 4.2421875,44.021484 3.5917969,44.380859 2.8984375,44.738281 2.2011719,45.074219 1.4375,45.419922 5.765625,54.986328 6.6425781,54.589844 7.5859375,54.136719 8.5410156,53.642578 9.53125,53.095703 10.478516,52.513672 10.681641,52.375 l 0.929687,-0.640625 1,-0.757813 1.06836,-0.880859 0.07226,-0.07031 0.496094,-0.429688 0.322265,-0.283203 0.886719,-0.841797 0.34375,-0.398437 0.408203,-0.460938 0.410157,-0.466797 0.802734,-0.919922 0.361328,-0.507812 0.330078,-0.472656 0.447266,-0.621094 0.09961,-0.148438 0.707032,-1.044921 0.328124,-0.570313 0.337891,-0.59375 0.476563,-0.828125 0.105468,-0.203125 0.525391,-0.996094 0.283203,-0.507812 0.431641,-0.865235 0.351562,-0.759765 0.175781,-0.34375 0.546876,-1.267578 0.410156,-1.011719 0.390625,-1.027344 0.308593,-0.822266 0.04492,-0.08398 0.605469,-1.662109 0.265625,-0.798828 0.01563,-0.03516 0.425781,-1.232422 0.384766,-1.21875 0.175781,-0.625 0.523438,-1.734374 0.292969,-0.958985 0.359374,-1.226562 0.400391,-1.457032 0.08008,-0.273437 0.650391,-2.320313 0.08203,-0.28125 0.417969,1.517579 0.314453,1.082031 0.517578,1.863281 0.318359,1.064453 0.351563,1.234375 0.427734,1.351563 0.04883,0.167968 0.513671,1.695313 0.38086,1.111328 0.320312,0.900391 0.341797,0.96875 0.19336,0.544921 0.55664,1.457032 0.369141,0.882812 0.416015,1.017578 0.0059,0.01563 v 0.06055 l 0.919922,2.017578 0.376953,0.78711 0.06836,0.146484 0.41211,0.78125 0.34375,0.605469 0.144531,0.289062 0.691406,1.205079 0.191406,0.357421 0.486328,0.808594 0.511719,0.746094 0.07031,0.103515 0.636718,0.914063 0.333985,0.458984 0.439453,0.546875 0.578125,0.701172 0.146484,0.146485 0.621094,0.707031 0.291016,0.292969 0.533203,0.564453 0.509765,0.464844 0.800782,0.738281 0.251953,0.203125 0.878906,0.724609 1.001953,0.763672 1.027344,0.705078 1.058594,0.660156 0.699218,0.378907 0.183594,0.111328 1.072266,0.554687 0.818359,0.386719 0.259766,0.111328 0.509765,0.22461 4.824219,-9.328126 -0.255859,-0.130859 -0.875,-0.386719 -0.138672,-0.06055 -0.486328,-0.230469 -0.576172,-0.296875 -0.09766,-0.06055 -0.660157,-0.355469 -0.582031,-0.363281 -0.621094,-0.427735 -0.638672,-0.486328 -0.769531,-0.634765 -0.0293,-0.02344 -0.558593,-0.511719 -0.232422,-0.214843 -0.373047,-0.396485 -0.16211,-0.160156 -0.621093,-0.707031 -0.02539,-0.02539 -0.21875,-0.267578 -0.240234,-0.296875 -0.119141,-0.166015 -0.550781,-0.789063 -0.04687,-0.06836 -0.339844,-0.496094 -0.193359,-0.324219 -0.144532,-0.267578 -0.613281,-1.068359 -0.136719,-0.273438 -0.398437,-0.699219 -0.212891,-0.40625 -0.310546,-0.646484 -0.810547,-1.826172 -0.373047,-0.912109 -0.31836,-0.765625 -0.458984,-1.207031 -0.150391,-0.416016 -0.33789,-0.960938 -0.304688,-0.857422 -0.298828,-0.873046 -0.447265,-1.476563 -0.06836,-0.230469 -0.416016,-1.3125 -0.328124,-1.148437 -0.306641,-1.029297 -0.505859,-1.824219 -0.310547,-1.074219 -0.501953,-1.816406 -0.201172,-0.71875 -0.345704,-1.234375 -0.423828,-1.478515 -0.02539,-0.04883 -0.22461,-0.78711 -0.46289,-1.480469 L 36.501953,10.216797 36.169922,9.3144531 35.955078,8.7226562 35.775391,8.2089844 35.603516,7.7011719 35.269531,6.9921875 35.021484,6.4042969 34.625,5.6015625 34.3125,5.0605469 33.923828,4.3886719 33.40625,3.7304688 33,3.265625 32.109375,2.3769531 30.988281,1.8164062 29.957031,1.3710938 Z"
         id="path7"
         inkscape:connector-curvature="0" />
    </g>
  </g>
</svg>
