<?xml version="1.0" encoding="UTF-8" standalone="no"?>
<svg
   xmlns:dc="http://purl.org/dc/elements/1.1/"
   xmlns:cc="http://creativecommons.org/ns#"
   xmlns:rdf="http://www.w3.org/1999/02/22-rdf-syntax-ns#"
   xmlns:svg="http://www.w3.org/2000/svg"
   xmlns="http://www.w3.org/2000/svg"
   xmlns:sodipodi="http://sodipodi.sourceforge.net/DTD/sodipodi-0.dtd"
   xmlns:inkscape="http://www.inkscape.org/namespaces/inkscape"
   width="24"
   height="24"
   viewBox="0 0 18.000001 18"
   version="1.1"
   id="svg4676"
   sodipodi:docname="ngraph_parameter-symbolic.svg"
   inkscape:version="1.0 (4035a4fb49, 2020-05-01)">
  <metadata
     id="metadata4682">
    <rdf:RDF>
      <cc:Work
         rdf:about="">
        <dc:format>image/svg+xml</dc:format>
        <dc:type
           rdf:resource="http://purl.org/dc/dcmitype/StillImage" />
        <dc:title />
      </cc:Work>
    </rdf:RDF>
  </metadata>
  <defs
     id="defs4680" />
  <sodipodi:namedview
     pagecolor="#ffffff"
     bordercolor="#666666"
     borderopacity="1"
     objecttolerance="10"
     gridtolerance="10"
     guidetolerance="10"
     inkscape:pageopacity="0"
     inkscape:pageshadow="2"
     inkscape:window-width="1611"
     inkscape:window-height="986"
     id="namedview4678"
     showgrid="true"
     units="px"
     inkscape:zoom="19.253373"
     inkscape:cx="8.8969053"
     inkscape:cy="9.9244659"
     inkscape:window-x="0"
     inkscape:window-y="0"
     inkscape:window-maximized="1"
     inkscape:current-layer="svg4676"
     inkscape:document-rotation="0">
    <inkscape:grid
       type="xygrid"
       id="grid6508" />
  </sodipodi:namedview>
  <path
     transform="scale(0.75000002)"
     d="M 4 1 C 2.338 1 1 2.338 1 4 L 1 20 C 1 21.662 2.338 23 4 23 L 20 23 C 21.662 23 23 21.662 23 20 L 23 4 C 23 2.338 21.662 1 20 1 L 4 1 z M 7 3 L 17 3 C 19.216 3 21 4.7840001 21 7 C 21 9.2159999 19.216 11 17 11 L 7 11 C 4.7840001 11 3 9.2159999 3 7 C 3 4.7840001 4.7840001 3 7 3 z M 7 13 L 17 13 C 19.216 13 21 14.784 21 17 C 21 19.216 19.216 21 17 21 L 7 21 C 4.7840001 21 3 19.216 3 17 C 3 14.784 4.7840001 13 7 13 z "
     style="opacity:1;fill:#bebebe;fill-opacity:1;fill-rule:evenodd;stroke:none;stroke-width:2;stroke-miterlimit:4;stroke-dasharray:none;stroke-dashoffset:0;stroke-opacity:1"
     id="rect833" />
  <circle
     inkscape:label="path873"
     inkscape:transform-center-y="-0.10727626"
     inkscape:transform-center-x="-1.3688755"
     r="2.25"
     cy="5.25"
     cx="5.25"
     id="path873"
     style="opacity:1;fill:#bebebe;fill-opacity:1;fill-rule:evenodd;stroke:none;stroke-width:1.5;stroke-miterlimit:4;stroke-dasharray:none;stroke-dashoffset:0;stroke-opacity:1" />
  <circle
     style="opacity:1;fill:#bebebe;fill-opacity:1;fill-rule:evenodd;stroke:none;stroke-width:1.5;stroke-miterlimit:4;stroke-dasharray:none;stroke-dashoffset:0;stroke-opacity:1"
     id="path873-0"
     cx="12.75"
     cy="12.75"
     r="2.25"
     inkscape:transform-center-x="-1.3688755"
     inkscape:transform-center-y="-0.10727626" />
</svg>
