<?xml version="1.0" encoding="UTF-8" standalone="no"?>
<!-- Created with Inkscape (http://www.inkscape.org/) -->

<svg
   xmlns:dc="http://purl.org/dc/elements/1.1/"
   xmlns:cc="http://creativecommons.org/ns#"
   xmlns:rdf="http://www.w3.org/1999/02/22-rdf-syntax-ns#"
   xmlns:svg="http://www.w3.org/2000/svg"
   xmlns="http://www.w3.org/2000/svg"
   xmlns:sodipodi="http://sodipodi.sourceforge.net/DTD/sodipodi-0.dtd"
   xmlns:inkscape="http://www.inkscape.org/namespaces/inkscape"
   width="24"
   height="24"
   viewBox="0 0 6.3499999 6.3500004"
   version="1.1"
   id="svg8"
   inkscape:version="0.92.4 (5da689c313, 2019-01-14)"
   sodipodi:docname="ngraph_draw-attension-symbolic.svg">
  <defs
     id="defs2" />
  <sodipodi:namedview
     id="base"
     pagecolor="#ffffff"
     bordercolor="#666666"
     borderopacity="1.0"
     inkscape:pageopacity="0.0"
     inkscape:pageshadow="2"
     inkscape:zoom="25.770371"
     inkscape:cx="10.792018"
     inkscape:cy="11.689318"
     inkscape:document-units="mm"
     inkscape:current-layer="layer1"
     showgrid="true"
     units="px"
     inkscape:pagecheckerboard="false"
     inkscape:window-width="1614"
     inkscape:window-height="986"
     inkscape:window-x="66"
     inkscape:window-y="27"
     inkscape:window-maximized="1">
    <inkscape:grid
       type="xygrid"
       id="grid821" />
  </sodipodi:namedview>
  <metadata
     id="metadata5">
    <rdf:RDF>
      <cc:Work
         rdf:about="">
        <dc:format>image/svg+xml</dc:format>
        <dc:type
           rdf:resource="http://purl.org/dc/dcmitype/StillImage" />
        <dc:title></dc:title>
      </cc:Work>
    </rdf:RDF>
  </metadata>
  <g
     inkscape:label="レイヤー 1"
     inkscape:groupmode="layer"
     id="layer1"
     transform="translate(0,-290.64991)">
    <path
       style="opacity:1;fill:#bebebe;fill-opacity:1;fill-rule:evenodd;stroke:none;stroke-width:1.05833328;stroke-linejoin:miter;stroke-miterlimit:4;stroke-dasharray:none;stroke-dashoffset:0;stroke-opacity:1;paint-order:markers fill stroke"
       id="path825"
       sodipodi:type="arc"
       sodipodi:cx="0.26458332"
       sodipodi:cy="296.73532"
       sodipodi:rx="1.3229166"
       sodipodi:ry="1.3229166"
       sodipodi:start="4.712389"
       sodipodi:end="0"
       d="m 0.26458335,295.4124 a 1.3229166,1.3229166 0 0 1 1.32291655,1.32292 H 0.26458332 Z" />
    <path
       style="fill:#bebebe;fill-opacity:1;fill-rule:evenodd;stroke:none;stroke-width:0.26458332px;stroke-linecap:butt;stroke-linejoin:miter;stroke-opacity:1"
       d="M 0.26458333,294.35407 3.7041667,290.91449 H 4.7625 l -3.4395833,3.43959 z"
       id="path827"
       inkscape:connector-curvature="0"
       sodipodi:nodetypes="ccccc" />
    <path
       style="fill:#bebebe;fill-opacity:1;fill-rule:evenodd;stroke:none;stroke-width:0.26458332px;stroke-linecap:butt;stroke-linejoin:miter;stroke-opacity:1"
       d="m 1.5875,294.35408 1.0583333,1.05833 3.4395834,-3.43958 -1.0583334,-1.05834 z"
       id="path833"
       inkscape:connector-curvature="0"
       sodipodi:nodetypes="ccccc" />
    <path
       style="fill:#bebebe;fill-opacity:1;fill-rule:evenodd;stroke:none;stroke-width:0.26458332px;stroke-linecap:butt;stroke-linejoin:miter;stroke-opacity:1"
       d="m 0.26458333,294.35408 v 2.38125 H 2.6458333 v -0.1323 H 0.396875 v -2.24895"
       id="path837"
       inkscape:connector-curvature="0"
       sodipodi:nodetypes="cccccc" />
    <path
       inkscape:connector-curvature="0"
       class="warning"
       d="m 4.2002605,294.63665 a 0.22780625,0.22780625 0 0 0 -0.2315104,0.23019 v 1.63909 a 0.22754167,0.22754167 0 0 0 0.2315104,0.2294 h 1.6536458 a 0.22754167,0.22754167 0 0 0 0.2315104,-0.2294 v -1.63909 a 0.22780625,0.22780625 0 0 0 -0.2315104,-0.23019 z m 0.5622396,0.24659 h 0.5291666 v 0.66146 c 0,0 0,0.13229 -0.1322916,0.13229 H 4.8947918 c -0.1322917,0 -0.1322917,-0.13229 -0.1322917,-0.13229 z m 0.1322917,1.05834 h 0.2645833 c 0.07329,0 0.1322916,0.059 0.1322916,0.13229 v 0.26458 c 0,0.0733 -0.059002,0.13229 -0.1322916,0.13229 H 4.8947918 a 0.13202708,0.13202708 0 0 1 -0.1322917,-0.13229 v -0.26458 c 0,-0.0733 0.059002,-0.13229 0.1322917,-0.13229 z"
       style="color:#bebebe;overflow:visible;fill:#f57900;stroke-width:0.26458332;marker:none"
       overflow="visible"
       id="path6" />
    <path
       style="fill:#bebebe;fill-opacity:1;fill-rule:evenodd;stroke:none;stroke-width:0.26458332px;stroke-linecap:butt;stroke-linejoin:miter;stroke-opacity:1"
       d="m 2.6458333,296.73533 v -1.05834 l 1.0583333,-1.05833 v 1.05833 z"
       id="path5208"
       inkscape:connector-curvature="0" />
    <path
       style="fill:#bebebe;fill-opacity:1;fill-rule:evenodd;stroke:none;stroke-width:0.26458332px;stroke-linecap:butt;stroke-linejoin:miter;stroke-opacity:1"
       d="m 3.96875,294.35408 h 1.0583333 l 1.0583333,-1.05834 v -1.05833 z"
       id="path5210"
       inkscape:connector-curvature="0" />
  </g>
</svg>
