<?xml version="1.0" encoding="UTF-8" standalone="no"?>
<svg
   xmlns:dc="http://purl.org/dc/elements/1.1/"
   xmlns:cc="http://creativecommons.org/ns#"
   xmlns:rdf="http://www.w3.org/1999/02/22-rdf-syntax-ns#"
   xmlns:svg="http://www.w3.org/2000/svg"
   xmlns="http://www.w3.org/2000/svg"
   xmlns:sodipodi="http://sodipodi.sourceforge.net/DTD/sodipodi-0.dtd"
   xmlns:inkscape="http://www.inkscape.org/namespaces/inkscape"
   width="67.716535pt"
   height="67.716535pt"
   viewBox="0 0 67.716535 67.716535"
   version="1.1"
   id="svg14"
   sodipodi:docname="wave_end-symbolic.svg"
   inkscape:version="0.92.3 (2405546, 2018-03-11)">
  <metadata
     id="metadata18">
    <rdf:RDF>
      <cc:Work
         rdf:about="">
        <dc:format>image/svg+xml</dc:format>
        <dc:type
           rdf:resource="http://purl.org/dc/dcmitype/StillImage" />
      </cc:Work>
    </rdf:RDF>
  </metadata>
  <sodipodi:namedview
     pagecolor="#ffffff"
     bordercolor="#666666"
     borderopacity="1"
     objecttolerance="10"
     gridtolerance="10"
     guidetolerance="10"
     inkscape:pageopacity="0"
     inkscape:pageshadow="2"
     inkscape:window-width="1366"
     inkscape:window-height="704"
     id="namedview16"
     showgrid="false"
     inkscape:zoom="2.6138371"
     inkscape:cx="9.7557723"
     inkscape:cy="43.614041"
     inkscape:window-x="0"
     inkscape:window-y="27"
     inkscape:window-maximized="1"
     inkscape:current-layer="svg14" />
  <defs
     id="defs5">
    <clipPath
       id="clip1">
      <path
         d="M 0 0 L 67.714844 0 L 67.714844 67.714844 L 0 67.714844 Z M 0 0 "
         id="path2" />
    </clipPath>
  </defs>
  <g
     id="surface46">
    <path
       style="color:#000000;font-style:normal;font-variant:normal;font-weight:normal;font-stretch:normal;font-size:medium;line-height:normal;font-family:sans-serif;font-variant-ligatures:normal;font-variant-position:normal;font-variant-caps:normal;font-variant-numeric:normal;font-variant-alternates:normal;font-feature-settings:normal;text-indent:0;text-align:start;text-decoration:none;text-decoration-line:none;text-decoration-style:solid;text-decoration-color:#000000;letter-spacing:normal;word-spacing:normal;text-transform:none;writing-mode:lr-tb;direction:ltr;text-orientation:mixed;dominant-baseline:auto;baseline-shift:baseline;text-anchor:start;white-space:normal;shape-padding:0;clip-rule:nonzero;display:inline;overflow:visible;visibility:visible;opacity:1;isolation:auto;mix-blend-mode:normal;color-interpolation:sRGB;color-interpolation-filters:linearRGB;solid-color:#000000;solid-opacity:1;vector-effect:none;fill:#bebebe;fill-opacity:1;fill-rule:nonzero;stroke:none;stroke-width:10.15748024;stroke-linecap:butt;stroke-linejoin:bevel;stroke-miterlimit:10;stroke-dasharray:none;stroke-dashoffset:0;stroke-opacity:1;color-rendering:auto;image-rendering:auto;shape-rendering:auto;text-rendering:auto;enable-background:accumulate"
       d="M 6.7734375,28.78125 V 38.9375 H 54.171875 V 28.78125 Z"
       id="path7"
       inkscape:connector-curvature="0" />
    <g
       clip-path="url(#clip1)"
       clip-rule="nonzero"
       id="g11">
      <path
         style="color:#000000;font-style:normal;font-variant:normal;font-weight:normal;font-stretch:normal;font-size:medium;line-height:normal;font-family:sans-serif;font-variant-ligatures:normal;font-variant-position:normal;font-variant-caps:normal;font-variant-numeric:normal;font-variant-alternates:normal;font-feature-settings:normal;text-indent:0;text-align:start;text-decoration:none;text-decoration-line:none;text-decoration-style:solid;text-decoration-color:#000000;letter-spacing:normal;word-spacing:normal;text-transform:none;writing-mode:lr-tb;direction:ltr;text-orientation:mixed;dominant-baseline:auto;baseline-shift:baseline;text-anchor:start;white-space:normal;shape-padding:0;clip-rule:nonzero;display:inline;overflow:visible;visibility:visible;opacity:1;isolation:auto;mix-blend-mode:normal;color-interpolation:sRGB;color-interpolation-filters:linearRGB;solid-color:#000000;solid-opacity:1;vector-effect:none;fill:#bebebe;fill-opacity:1;fill-rule:nonzero;stroke:none;stroke-width:10.15748024;stroke-linecap:butt;stroke-linejoin:miter;stroke-miterlimit:10;stroke-dasharray:none;stroke-dashoffset:0;stroke-opacity:1;color-rendering:auto;image-rendering:auto;shape-rendering:auto;text-rendering:auto;enable-background:accumulate"
         d="m 50.09375,10.515625 -0.863281,1.162109 -0.814453,1.076172 -0.75,1.111328 -0.611328,0.949219 -0.519532,0.857422 -0.548828,0.923828 -0.498047,1.001953 -0.435547,0.964844 -0.335937,0.958984 -0.300781,0.951172 -0.242188,1.136719 -0.107422,0.992187 -0.05078,0.884766 v 0.367188 l 0.05078,0.853515 0.111328,1.013672 0.21875,0.976563 0.253907,0.966796 0.345703,0.933594 0.373047,0.94336 0.458984,0.912109 0.451172,0.865234 0.566406,0.958985 0.583985,0.894531 0.615234,0.919922 0.722656,0.988281 0.699219,0.935547 0.607422,0.84375 0.919922,1.234375 0.673828,0.890625 0.533203,0.785156 0.474609,0.740235 0.425781,0.701172 0.332032,0.560546 0.246094,0.494141 0.175781,0.390625 0.138672,0.392578 0.103515,0.330078 0.0332,0.15625 0.02539,0.226563 0.01172,0.208984 -0.01172,0.189453 -0.02148,0.205078 -0.05273,0.232422 -0.08789,0.330078 -0.126953,0.34961 -0.167969,0.416015 -0.222657,0.449219 -0.287109,0.544922 -0.320312,0.544922 -0.429688,0.660156 -0.462891,0.69336 -0.564453,0.769531 -0.722656,0.96289 -0.634765,0.88086 8.234374,5.945312 0.583985,-0.80664 0.699219,-0.935547 0.724609,-0.988282 0.623047,-0.93164 0.585937,-0.902344 0.554688,-0.939453 0.462891,-0.876953 0.449218,-0.910156 0.378906,-0.935547 0.341797,-0.939453 0.25586,-0.958985 0.220703,-0.986328 0.111328,-1.013672 0.05078,-0.847656 V 43.802734 L 64.28125,42.917969 64.173828,41.925781 63.933594,40.792969 63.630859,39.833984 63.292969,38.875 62.859375,37.914062 62.363281,36.916016 61.8125,35.984375 61.292969,35.130859 60.681641,34.175781 59.925781,33.0625 l -0.810547,-1.070312 -0.845703,-1.132813 -0.611328,-0.851563 -0.722656,-0.96289 -0.558594,-0.769531 -0.470703,-0.705079 -0.431641,-0.660156 -0.316406,-0.533203 -0.291015,-0.556641 -0.220704,-0.439453 -0.166015,-0.416015 -0.13086,-0.355469 -0.08203,-0.314453 -0.05469,-0.242188 -0.02148,-0.205078 -0.01172,-0.191406 0.01172,-0.210938 0.02539,-0.226562 0.03125,-0.152344 0.105469,-0.330078 0.140625,-0.40039 0.173828,-0.386719 0.24414,-0.490235 0.333985,-0.560546 0.425781,-0.705079 0.474609,-0.738281 0.53125,-0.787109 0.677735,-0.892578 L 58.25,16.570312 Z"
         id="path9"
         inkscape:connector-curvature="0" />
    </g>
  </g>
</svg>
