<?xml version="1.0" encoding="UTF-8" standalone="no"?>
<!-- Created with Inkscape (http://www.inkscape.org/) -->

<svg
   xmlns:dc="http://purl.org/dc/elements/1.1/"
   xmlns:cc="http://creativecommons.org/ns#"
   xmlns:rdf="http://www.w3.org/1999/02/22-rdf-syntax-ns#"
   xmlns:svg="http://www.w3.org/2000/svg"
   xmlns="http://www.w3.org/2000/svg"
   version="1.1"
   width="64"
   height="64"
   id="svg2">
  <defs
     id="defs4" />
  <metadata
     id="metadata7">
    <rdf:RDF>
      <cc:Work
         rdf:about="">
        <dc:format>image/svg+xml</dc:format>
        <dc:type
           rdf:resource="http://purl.org/dc/dcmitype/StillImage" />
        <dc:title></dc:title>
      </cc:Work>
    </rdf:RDF>
  </metadata>
  <g
     transform="translate(0,-988.3622)"
     id="layer1"
     style="display:inline">
    <rect
       width="23.625"
       height="27"
       x="36.3125"
       y="1017.2997"
       id="rect4066"
       style="fill:#000000;fill-opacity:1;stroke:none;display:inline" />
    <path
       d="m 0.5,1006.6122 33.125,-16.25 34.75,34.375 -44.375,22.875 -23.5,-23.375 z"
       id="path3007-6"
       style="fill:#000000;stroke:#000000;stroke-width:1px;stroke-linecap:butt;stroke-linejoin:miter;stroke-opacity:1;display:inline" />
    <path
       d="M 1.5,16.625 34.5,0.125 69.25,34.5 24.875,57.375 1.5,34.25 z"
       transform="translate(0,988.3622)"
       id="path3914"
       style="fill:#ffffff;fill-opacity:1;stroke:none" />
    <path
       d="M 1.625,16.875 9.5,25 1.625,32.75"
       transform="translate(0,988.3622)"
       id="path3777"
       style="fill:#e6e6e6;stroke:#808080;stroke-width:1px;stroke-linecap:butt;stroke-linejoin:miter;stroke-opacity:1" />
    <path
       d="M 1.5,16.625 34.5,0.125 69.25,34.5 24.875,57.375 1.5,34.25 z"
       transform="translate(0,988.3622)"
       id="path3007"
       style="fill:none;stroke:#808080;stroke-width:1px;stroke-linecap:butt;stroke-linejoin:miter;stroke-opacity:1" />
    <rect
       width="23.625"
       height="27"
       x="36.3125"
       y="1017.2997"
       id="rect3934-3"
       style="opacity:0.09144544;fill:#000000;fill-opacity:1;stroke:none;display:inline" />
    <rect
       width="20.125"
       height="23.375"
       x="41.6875"
       y="1023.1747"
       id="rect3934-9-2"
       style="fill:#808000;fill-opacity:1;stroke:none;display:inline" />
    <rect
       width="19.875"
       height="26.875"
       x="43.0625"
       y="1024.2997"
       id="rect3934-9"
       style="fill:#808000;fill-opacity:1;stroke:none;display:inline" />
    <path
       d="m 16.125,1020.0497 3.75,-2.125"
       id="path3807-4"
       style="fill:none;stroke:#000000;stroke-width:1px;stroke-linecap:butt;stroke-linejoin:miter;stroke-opacity:1;display:inline" />
    <path
       d="m 9.625,22.375 22,22.125"
       transform="translate(0,988.3622)"
       id="path3781"
       style="fill:none;stroke:#000000;stroke-width:1px;stroke-linecap:butt;stroke-linejoin:miter;stroke-opacity:1" />
    <path
       d="M 10.5,37 35.125,12.125"
       transform="translate(0,988.3622)"
       id="path3779"
       style="fill:none;stroke:#ff0000;stroke-width:1px;stroke-linecap:butt;stroke-linejoin:miter;stroke-opacity:1" />
    <path
       d="m 15.75,41.25 35.375,-18"
       transform="translate(0,988.3622)"
       id="path3783"
       style="fill:none;stroke:#000000;stroke-width:1px;stroke-linecap:butt;stroke-linejoin:miter;stroke-opacity:1" />
    <path
       d="M 16.375,38.25 19.5,41.5"
       transform="translate(0,988.3622)"
       id="path3785"
       style="fill:none;stroke:#000000;stroke-width:1px;stroke-linecap:butt;stroke-linejoin:miter;stroke-opacity:1" />
    <path
       d="m 30.5,31.25 3.125,3.5"
       transform="translate(0,988.3622)"
       id="path3787"
       style="fill:none;stroke:#000000;stroke-width:1px;stroke-linecap:butt;stroke-linejoin:miter;stroke-opacity:1" />
    <path
       d="m 36.375,28.5 3.25,3.125"
       transform="translate(0,988.3622)"
       id="path3789"
       style="fill:none;stroke:#000000;stroke-width:1px;stroke-linecap:butt;stroke-linejoin:miter;stroke-opacity:1" />
    <path
       d="m 42.5,25.375 3.125,3.25"
       transform="translate(0,988.3622)"
       id="path3791"
       style="fill:none;stroke:#000000;stroke-width:1px;stroke-linecap:butt;stroke-linejoin:miter;stroke-opacity:1" />
    <path
       d="m 48.25,22.5 3.125,3.125"
       transform="translate(0,988.3622)"
       id="path3793"
       style="fill:none;stroke:#000000;stroke-width:1px;stroke-linecap:butt;stroke-linejoin:miter;stroke-opacity:1" />
    <path
       d="M 10.125,25.625 13.875,23.5"
       transform="translate(0,988.3622)"
       id="path3807"
       style="fill:none;stroke:#000000;stroke-width:1px;stroke-linecap:butt;stroke-linejoin:miter;stroke-opacity:1" />
    <path
       d="m 13.25,1017.0497 3.75,-2.125"
       id="path3807-6"
       style="fill:none;stroke:#000000;stroke-width:1px;stroke-linecap:butt;stroke-linejoin:miter;stroke-opacity:1;display:inline" />
    <path
       d="m 19,1023.0497 3.75,-2.125"
       id="path3807-9"
       style="fill:none;stroke:#000000;stroke-width:1px;stroke-linecap:butt;stroke-linejoin:miter;stroke-opacity:1;display:inline" />
    <path
       d="m 25.125,1029.0497 3.75,-2.125"
       id="path3807-2"
       style="fill:none;stroke:#000000;stroke-width:1px;stroke-linecap:butt;stroke-linejoin:miter;stroke-opacity:1;display:inline" />
    <path
       d="m 28.125,1032.1747 3.75,-2.125"
       id="path3807-60"
       style="fill:none;stroke:#000000;stroke-width:1px;stroke-linecap:butt;stroke-linejoin:miter;stroke-opacity:1;display:inline" />
    <path
       d="m 15.75,17.5 a 1.5,1.125 0 1 1 -3,0 1.5,1.125 0 1 1 3,0 z"
       transform="translate(0.75,988.8622)"
       id="path3855"
       style="fill:#00ffff;fill-opacity:1;stroke:#0000ff;stroke-width:1;stroke-miterlimit:10;stroke-opacity:1;stroke-dasharray:none" />
    <path
       d="m 15.75,17.5 a 1.5,1.125 0 1 1 -3,0 1.5,1.125 0 1 1 3,0 z"
       transform="translate(8.625,988.8622)"
       id="path3855-2"
       style="fill:#00ffff;fill-opacity:1;stroke:#0000ff;stroke-width:1;stroke-miterlimit:10;stroke-opacity:1;stroke-dasharray:none;display:inline" />
    <path
       d="m 15.75,17.5 a 1.5,1.125 0 1 1 -3,0 1.5,1.125 0 1 1 3,0 z"
       transform="translate(12.625,982.7372)"
       id="path3855-6"
       style="fill:#00ffff;fill-opacity:1;stroke:#0000ff;stroke-width:1;stroke-miterlimit:10;stroke-opacity:1;stroke-dasharray:none;display:inline" />
    <path
       d="m 15.75,17.5 a 1.5,1.125 0 1 1 -3,0 1.5,1.125 0 1 1 3,0 z"
       transform="translate(22.875,987.8622)"
       id="path3855-66"
       style="fill:#00ffff;fill-opacity:1;stroke:#0000ff;stroke-width:1;stroke-miterlimit:10;stroke-opacity:1;stroke-dasharray:none;display:inline" />
    <path
       d="m 15.75,17.5 a 1.5,1.125 0 1 1 -3,0 1.5,1.125 0 1 1 3,0 z"
       transform="translate(12.625,997.7372)"
       id="path3855-4"
       style="fill:#00ffff;fill-opacity:1;stroke:#0000ff;stroke-width:1;stroke-miterlimit:10;stroke-opacity:1;stroke-dasharray:none;display:inline" />
    <rect
       width="19.875"
       height="26.875"
       x="44.125"
       y="1025.4872"
       id="rect3934"
       style="fill:#ffff00;fill-opacity:1;stroke:none" />
    <path
       d="m 54.125,58.5 a 1.625,1.625 0 1 1 -0.07059,0.0015"
       transform="translate(-0.125,988.2372)"
       id="path3946"
       style="fill:#000080;fill-opacity:1;stroke:none" />
    <path
       d="m 54.125,58.5 a 1.625,1.625 0 1 1 -0.07059,0.0015"
       transform="translate(5.75,988.2372)"
       id="path3946-5"
       style="fill:#000080;fill-opacity:1;stroke:none;display:inline" />
    <path
       d="m 54.125,58.5 a 1.625,1.625 0 1 1 -0.07059,0.0015"
       transform="translate(-6.125,988.2372)"
       id="path3946-4"
       style="fill:#000080;fill-opacity:1;stroke:none;display:inline" />
    <path
       d="m 54.125,58.5 a 1.625,1.625 0 1 1 -0.07059,0.0015"
       transform="translate(-0.1875,982.2372)"
       id="path3946-9"
       style="fill:#000080;fill-opacity:1;stroke:none;display:inline" />
    <path
       d="m 54.125,58.5 a 1.625,1.625 0 1 1 -0.07059,0.0015"
       transform="translate(5.6875,982.2372)"
       id="path3946-5-8"
       style="fill:#000080;fill-opacity:1;stroke:none;display:inline" />
    <path
       d="m 54.125,58.5 a 1.625,1.625 0 1 1 -0.07059,0.0015"
       transform="translate(-6.1875,982.2372)"
       id="path3946-4-3"
       style="fill:#000080;fill-opacity:1;stroke:none;display:inline" />
    <path
       d="m 54.125,58.5 a 1.625,1.625 0 1 1 -0.07059,0.0015"
       transform="translate(-0.1875,976.1122)"
       id="path3946-2"
       style="fill:#000080;fill-opacity:1;stroke:none;display:inline" />
    <path
       d="m 54.125,58.5 a 1.625,1.625 0 1 1 -0.07059,0.0015"
       transform="translate(5.6875,976.1122)"
       id="path3946-5-6"
       style="fill:#000080;fill-opacity:1;stroke:none;display:inline" />
    <path
       d="m 54.125,58.5 a 1.625,1.625 0 1 1 -0.07059,0.0015"
       transform="translate(-6.1875,976.1122)"
       id="path3946-4-2"
       style="fill:#000080;fill-opacity:1;stroke:none;display:inline" />
    <rect
       width="16"
       height="5"
       x="45.875"
       y="39"
       transform="translate(0,988.3622)"
       id="rect4008"
       style="fill:#008000;fill-opacity:1;stroke:none" />
    <g
       id="text4010"
       style="font-size:4px;font-style:normal;font-weight:normal;line-height:125%;letter-spacing:0px;word-spacing:0px;fill:#00ff00;fill-opacity:1;stroke:none;font-family:Sans">
      <path
         d="m 52.9,1028.3322 0,-0.01 -1.25,0 0,-0.36 1.725,0 0,0.36 -0.9,1.145 0,0.01 0.05,0 c 0.303332,0 0.524998,0.085 0.665,0.255 0.139998,0.17 0.209998,0.4467 0.21,0.83 -2e-6,0.7333 -0.325002,1.1 -0.975,1.1 -0.243334,0 -0.485001,-0.05 -0.725,-0.15 l 0,-0.435 c 0.256666,0.1433 0.473332,0.215 0.65,0.215 0.213332,0 0.371665,-0.057 0.475,-0.17 0.103332,-0.1167 0.154998,-0.3033 0.155,-0.56 -2e-6,-0.2967 -0.04167,-0.4917 -0.125,-0.585 -0.08333,-0.093 -0.251668,-0.14 -0.505,-0.14 l -0.35,0 0,-0.36 0.9,-1.145"
         id="path4015"
         style="font-size:5px" />
      <path
         d="m 54.675,1031.6122 0,-0.75 0.65,0 0,0.75 -0.65,0"
         id="path4017"
         style="font-size:5px" />
      <path
         d="m 57.54,1031.6122 0,-3.225 -0.01,0 -0.865,0.505 0,-0.4 0.875,-0.525 0.41,0 0,3.65 -0.41,0"
         id="path4019"
         style="font-size:5px" />
      <path
         d="m 60.215,1028.6622 -0.01,0 -0.875,1.705 0,0.01 0.885,0 0,-1.715 m 0,2.075 -1.265,0 0,-0.41 1.215,-2.365 0.46,0 0,2.415 0.425,0 0,0.36 -0.425,0 0,0.875 -0.41,0 0,-0.875"
         id="path4021"
         style="font-size:5px" />
    </g>
  </g>
  <g
     id="text3028"
     style="font-size:16px;font-style:normal;font-weight:bold;line-height:125%;letter-spacing:0px;word-spacing:0px;fill:#000000;fill-opacity:1;stroke:none;font-family:Sans;-inkscape-font-specification:Sans Bold">
    <path
       d="m 0.92637718,49.081703 3.35937502,0 4.2421875,8 0,-8 2.8515623,0 0,11.664063 -3.3593748,0 -4.2421875,-8 0,8 -2.85156252,0 0,-11.664063"
       id="path3105"
       style="fill:#00ffff" />
    <path
       d="m 17.404893,57.947914 c -5e-6,-0.651038 -0.135096,-1.155595 -0.405274,-1.513672 -0.266931,-0.358068 -0.642907,-0.537104 -1.127929,-0.537109 -0.481774,5e-6 -0.85775,0.179041 -1.12793,0.537109 -0.266929,0.358077 -0.400392,0.862634 -0.400391,1.513672 -10e-7,0.647789 0.133462,1.150718 0.400391,1.508789 0.27018,0.358074 0.646156,0.53711 1.12793,0.53711 0.485022,0 0.860998,-0.179036 1.127929,-0.53711 0.270178,-0.358071 0.405269,-0.861 0.405274,-1.508789 m 0.898437,2.119141 c -5e-6,0.930989 -0.206711,1.62272 -0.620117,2.075195 -0.413416,0.455727 -1.046553,0.683592 -1.899414,0.683594 -0.315758,-2e-6 -0.613609,-0.02442 -0.893555,-0.07324 -0.279949,-0.04558 -0.551759,-0.11719 -0.815429,-0.214844 l 0,-0.874024 c 0.26367,0.143229 0.524086,0.249023 0.78125,0.317383 0.257159,0.06836 0.519203,0.102538 0.786132,0.102539 0.58919,-10e-7 1.03027,-0.154623 1.323243,-0.463867 0.292964,-0.30599 0.439448,-0.769857 0.439453,-1.391601 l 0,-0.444336 c -0.185551,0.322266 -0.423181,0.563151 -0.712891,0.722656 -0.289717,0.159505 -0.636396,0.239258 -1.040039,0.239258 -0.670575,0 -1.210939,-0.255534 -1.621094,-0.766602 -0.410157,-0.511066 -0.615235,-1.188149 -0.615234,-2.03125 -10e-7,-0.84635 0.205077,-1.525061 0.615234,-2.036133 0.410155,-0.511062 0.950519,-0.766596 1.621094,-0.766601 0.403643,5e-6 0.750322,0.07976 1.040039,0.239258 0.28971,0.15951 0.52734,0.400395 0.712891,0.722656 l 0,-0.830078 0.898437,0 0,4.790039"
       id="path3107"
       style="font-size:10px;font-weight:normal;fill:#00ffff;-inkscape-font-specification:Sans" />
    <path
       d="m 23.322862,56.116859 c -0.100916,-0.05859 -0.211593,-0.100906 -0.332032,-0.126953 -0.117191,-0.02929 -0.247399,-0.04394 -0.390625,-0.04395 -0.507815,5e-6 -0.89844,0.16602 -1.171875,0.498047 -0.270184,0.32878 -0.405275,0.802412 -0.405273,1.420898 l 0,2.88086 -0.90332,0 0,-5.46875 0.90332,0 0,0.849609 c 0.1888,-0.332026 0.434568,-0.577794 0.737305,-0.737305 0.302731,-0.162755 0.670569,-0.244135 1.103515,-0.24414 0.06185,5e-6 0.130205,0.0049 0.205078,0.01465 0.07487,0.0065 0.157874,0.01791 0.249024,0.03418 l 0.0049,0.922851"
       id="path3109"
       style="font-size:10px;font-weight:normal;fill:#00ffff;-inkscape-font-specification:Sans" />
    <path
       d="m 26.760362,57.996742 c -0.725915,3e-6 -1.228844,0.08301 -1.50879,0.249024 -0.279949,0.166018 -0.419923,0.44922 -0.419921,0.849609 -2e-6,0.319012 0.104165,0.572918 0.3125,0.761719 0.211586,0.185547 0.498044,0.278321 0.859375,0.27832 0.498043,1e-6 0.896806,-0.17578 1.196289,-0.527344 0.30273,-0.354816 0.454097,-0.825193 0.454101,-1.411132 l 0,-0.200196 -0.893554,0 m 1.791992,-0.371094 0,3.120118 -0.898438,0 0,-0.830078 c -0.205082,0.332031 -0.460616,0.577799 -0.766601,0.737304 -0.305993,0.15625 -0.680342,0.234375 -1.123047,0.234375 -0.559898,0 -1.005861,-0.15625 -1.337891,-0.46875 -0.328777,-0.315754 -0.493164,-0.737303 -0.493164,-1.264648 0,-0.615232 0.205077,-1.079099 0.615234,-1.391602 0.41341,-0.312496 1.028644,-0.468746 1.845704,-0.46875 l 1.259765,0 0,-0.08789 c -4e-6,-0.413408 -0.136723,-0.732418 -0.410156,-0.957032 -0.270186,-0.227859 -0.651045,-0.341792 -1.142578,-0.341797 -0.312503,5e-6 -0.616864,0.03744 -0.913086,0.112305 -0.296226,0.07488 -0.581056,0.187179 -0.854492,0.336914 l 0,-0.830078 c 0.328774,-0.126948 0.647785,-0.221349 0.957031,-0.283203 0.309243,-0.0651 0.610349,-0.09765 0.90332,-0.09766 0.791012,5e-6 1.381832,0.205083 1.772461,0.615234 0.39062,0.410161 0.585933,1.031905 0.585938,1.865234"
       id="path3111"
       style="font-size:10px;font-weight:normal;fill:#00ffff;-inkscape-font-specification:Sans" />
    <path
       d="m 31.276963,59.925453 0,2.900391 -0.90332,0 0,-7.548828 0.90332,0 0,0.830078 c 0.1888,-0.325516 0.42643,-0.566401 0.712891,-0.722656 0.28971,-0.1595 0.634762,-0.239253 1.035156,-0.239258 0.664058,5e-6 1.202795,0.263677 1.616211,0.791015 0.416661,0.527348 0.624994,1.220707 0.625,2.080078 -6e-6,0.859377 -0.208339,1.552736 -0.625,2.080079 -0.413416,0.527343 -0.952153,0.791015 -1.616211,0.791015 -0.400394,0 -0.745446,-0.07813 -1.035156,-0.234375 -0.286461,-0.159505 -0.524091,-0.402017 -0.712891,-0.727539 m 3.056641,-1.90918 c -5e-6,-0.660803 -0.136724,-1.178381 -0.410157,-1.552734 -0.270186,-0.377599 -0.642907,-0.566401 -1.118164,-0.566406 -0.475263,5e-6 -0.849611,0.188807 -1.123046,0.566406 -0.270185,0.374353 -0.405276,0.891931 -0.405274,1.552734 -2e-6,0.66081 0.135089,1.180015 0.405274,1.557618 0.273435,0.374349 0.647783,0.561524 1.123046,0.561523 0.475257,1e-6 0.847978,-0.187174 1.118164,-0.561523 0.273433,-0.377603 0.410152,-0.896808 0.410157,-1.557618"
       id="path3113"
       style="font-size:10px;font-weight:normal;fill:#00ffff;-inkscape-font-specification:Sans" />
    <path
       d="m 41.301377,57.444984 0,3.300782 -0.898437,0 0,-3.271485 c -5e-6,-0.517574 -0.100916,-0.904943 -0.302735,-1.162109 -0.201827,-0.257157 -0.504561,-0.385737 -0.908203,-0.385742 -0.485029,5e-6 -0.867515,0.154627 -1.147461,0.463867 -0.27995,0.309249 -0.419923,0.730798 -0.419922,1.264648 l 0,3.090821 -0.90332,0 0,-7.597657 0.90332,0 0,2.978516 c 0.214842,-0.328771 0.46712,-0.574539 0.756836,-0.737305 0.292966,-0.162755 0.62988,-0.244135 1.010742,-0.24414 0.628251,5e-6 1.103511,0.195318 1.425782,0.585937 0.32226,0.387375 0.483393,0.958663 0.483398,1.713867"
       id="path3115"
       style="font-size:10px;font-weight:normal;fill:#00ffff;-inkscape-font-specification:Sans" />
  </g>
</svg>
