<?xml version="1.0" encoding="UTF-8" standalone="no"?>
<svg
   width="24"
   height="24"
   viewBox="0 0 17.999999 17.999999"
   version="1.1"
   id="svg5"
   sodipodi:docname="ngraph_mark08-symbolic.svg"
   inkscape:version="1.1.2 (0a00cf5339, 2022-02-04)"
   xmlns:inkscape="http://www.inkscape.org/namespaces/inkscape"
   xmlns:sodipodi="http://sodipodi.sourceforge.net/DTD/sodipodi-0.dtd"
   xmlns="http://www.w3.org/2000/svg"
   xmlns:svg="http://www.w3.org/2000/svg"
   xmlns:rdf="http://www.w3.org/1999/02/22-rdf-syntax-ns#"
   xmlns:cc="http://creativecommons.org/ns#"
   xmlns:dc="http://purl.org/dc/elements/1.1/">
  <metadata
     id="metadata11">
    <rdf:RDF>
      <cc:Work
         rdf:about="">
        <dc:format>image/svg+xml</dc:format>
        <dc:type
           rdf:resource="http://purl.org/dc/dcmitype/StillImage" />
      </cc:Work>
    </rdf:RDF>
  </metadata>
  <defs
     id="defs9">
    <inkscape:path-effect
       effect="fill_between_many"
       method="originald"
       linkedpaths="#path4,0,1"
       id="path-effect1421"
       join="true"
       close="true"
       autoreverse="true" />
    <inkscape:path-effect
       effect="fill_between_many"
       method="originald"
       linkedpaths="#path837,0,1"
       id="path-effect1858"
       join="true"
       close="true"
       autoreverse="true" />
    <clipPath
       id="clip1">
      <path
         d="M 40,0 H 81.261719 V 81.261719 H 40 Z m 0,0"
         id="path1275" />
    </clipPath>
  </defs>
  <sodipodi:namedview
     pagecolor="#ffffff"
     bordercolor="#666666"
     borderopacity="1"
     objecttolerance="10"
     gridtolerance="10"
     guidetolerance="10"
     inkscape:pageopacity="0"
     inkscape:pageshadow="2"
     inkscape:window-width="1845"
     inkscape:window-height="1011"
     id="namedview7"
     showgrid="true"
     inkscape:zoom="29.62"
     inkscape:cx="11.276165"
     inkscape:cy="13.251182"
     inkscape:window-x="0"
     inkscape:window-y="0"
     inkscape:window-maximized="1"
     inkscape:current-layer="svg5"
     units="px"
     inkscape:pagecheckerboard="1">
    <inkscape:grid
       type="xygrid"
       id="grid1431" />
  </sodipodi:namedview>
  <path
     style="opacity:0.33;fill:#bebebe;fill-opacity:1;fill-rule:nonzero;stroke:none;stroke-width:0.212644"
     d="m 9.0004149,0.360083 c 4.7712041,0 8.6395011,3.868297 8.6395011,8.6403319 0,4.7712041 -3.868297,8.6395011 -8.6395011,8.6395011 -4.7720349,0 -8.6403319,-3.868297 -8.6403319,-8.6395011 0,-4.7720349 3.868297,-8.6403319 8.6403319,-8.6403319 v 8.6403319 z m 0,0"
     id="path1280" />
  <path
     style="color:#000000;fill:#bebebe;fill-opacity:1;stroke-width:0.212644;stroke-miterlimit:10;-inkscape-stroke:none"
     d="m 17.999999,9.0004149 c 0,4.9657751 -4.033809,8.9995841 -8.9995841,8.9995841 C 4.033843,17.999999 0,13.96619 0,9.0004149 0,4.033843 4.033843,0 9.0004149,0 13.96619,0 17.999999,4.033843 17.999999,9.0004149 Z m -0.720166,0 c 0,-4.5774879 -3.702795,-8.2802489 -8.2794181,-8.2802489 -4.5774879,0 -8.2802489,3.702761 -8.2802489,8.2802489 0,4.5766231 3.702761,8.2794181 8.2802489,8.2794181 4.5766231,0 8.2794181,-3.702795 8.2794181,-8.2794181 z"
     id="path1282" />
  <g
     clip-path="url(#clip1)"
     clip-rule="nonzero"
     id="g1286"
     transform="matrix(0,-0.2126442,-0.2126442,0,17.639916,17.639916)"
     style="fill:#bebebe;fill-opacity:1">
    <path
       style="fill:#bebebe;fill-opacity:1;fill-rule:nonzero;stroke:none"
       d="m 40.628906,81.261719 c 22.441406,0 40.632813,-18.191407 40.632813,-40.632813 C 81.261719,18.191406 63.070312,0 40.628906,0 Z m 0,0"
       id="path1284" />
  </g>
</svg>
