<?xml version="1.0" encoding="UTF-8" standalone="no"?>
<svg
   width="24"
   height="24"
   viewBox="0 0 17.999999 17.999999"
   version="1.1"
   id="svg5"
   sodipodi:docname="ngraph_mark05-symbolic.svg"
   inkscape:version="1.1.2 (0a00cf5339, 2022-02-04)"
   xmlns:inkscape="http://www.inkscape.org/namespaces/inkscape"
   xmlns:sodipodi="http://sodipodi.sourceforge.net/DTD/sodipodi-0.dtd"
   xmlns="http://www.w3.org/2000/svg"
   xmlns:svg="http://www.w3.org/2000/svg"
   xmlns:rdf="http://www.w3.org/1999/02/22-rdf-syntax-ns#"
   xmlns:cc="http://creativecommons.org/ns#"
   xmlns:dc="http://purl.org/dc/elements/1.1/">
  <metadata
     id="metadata11">
    <rdf:RDF>
      <cc:Work
         rdf:about="">
        <dc:format>image/svg+xml</dc:format>
        <dc:type
           rdf:resource="http://purl.org/dc/dcmitype/StillImage" />
      </cc:Work>
    </rdf:RDF>
  </metadata>
  <defs
     id="defs9">
    <inkscape:path-effect
       effect="fill_between_many"
       method="originald"
       linkedpaths="#path4,0,1"
       id="path-effect1421"
       join="true"
       close="true"
       autoreverse="true" />
    <inkscape:path-effect
       effect="fill_between_many"
       method="originald"
       linkedpaths="#path837,0,1|"
       id="path-effect1858"
       join="true"
       close="true"
       autoreverse="true" />
  </defs>
  <sodipodi:namedview
     pagecolor="#ffffff"
     bordercolor="#666666"
     borderopacity="1"
     objecttolerance="10"
     gridtolerance="10"
     guidetolerance="10"
     inkscape:pageopacity="0"
     inkscape:pageshadow="2"
     inkscape:window-width="1845"
     inkscape:window-height="1011"
     id="namedview7"
     showgrid="true"
     inkscape:zoom="29.62"
     inkscape:cx="11.276165"
     inkscape:cy="13.251182"
     inkscape:window-x="0"
     inkscape:window-y="0"
     inkscape:window-maximized="1"
     inkscape:current-layer="svg5"
     units="px"
     inkscape:pagecheckerboard="1">
    <inkscape:grid
       type="xygrid"
       id="grid1431" />
  </sodipodi:namedview>
  <path
     inkscape:original-d="M 0,0"
     inkscape:path-effect="#path-effect1858"
     d="M 8.9995126,0 C 4.0294904,0 0,4.0294904 0,8.9995126 0,13.9704 4.0294904,17.999999 8.9995126,17.999999 13.9704,17.999999 17.999999,13.9704 17.999999,8.9995126 17.999999,4.0294904 13.9704,0 8.9995126,0 Z"
     id="path1860"
     style="fill:#bebebe;fill-opacity:1;opacity:0.33" />
  <path
     id="path837"
     style="fill:#bebebe;fill-opacity:1;fill-rule:nonzero;stroke:none;stroke-width:0.221505"
     d="M 8.9995126,0 C 4.0294904,0 0,4.0294904 0,8.9995126 0,13.9704 4.0294904,17.999999 8.9995126,17.999999 13.9704,17.999999 17.999999,13.9704 17.999999,8.9995126 17.999999,4.0294904 13.9704,0 8.9995126,0 Z m 0,4.5000808 c 2.4850114,0 4.5000804,2.0144207 4.5000804,4.4994318 0,2.4850114 -2.015069,4.5000804 -4.5000804,4.5000804 -2.4850111,0 -4.4994318,-2.015069 -4.4994318,-4.5000804 0,-2.4850111 2.0144207,-4.4994318 4.4994318,-4.4994318 z" />
</svg>
