<?xml version="1.0" encoding="UTF-8" standalone="no"?>
<svg
   width="24"
   height="24"
   viewBox="0 0 17.999999 17.999999"
   version="1.1"
   id="svg5"
   sodipodi:docname="ngraph_mark86-symbolic.svg"
   inkscape:version="1.1.2 (0a00cf5339, 2022-02-04)"
   xmlns:inkscape="http://www.inkscape.org/namespaces/inkscape"
   xmlns:sodipodi="http://sodipodi.sourceforge.net/DTD/sodipodi-0.dtd"
   xmlns="http://www.w3.org/2000/svg"
   xmlns:svg="http://www.w3.org/2000/svg"
   xmlns:rdf="http://www.w3.org/1999/02/22-rdf-syntax-ns#"
   xmlns:cc="http://creativecommons.org/ns#"
   xmlns:dc="http://purl.org/dc/elements/1.1/">
  <metadata
     id="metadata11">
    <rdf:RDF>
      <cc:Work
         rdf:about="">
        <dc:format>image/svg+xml</dc:format>
        <dc:type
           rdf:resource="http://purl.org/dc/dcmitype/StillImage" />
      </cc:Work>
    </rdf:RDF>
  </metadata>
  <defs
     id="defs9">
    <inkscape:path-effect
       effect="fill_between_many"
       method="originald"
       linkedpaths="#path4,0,1"
       id="path-effect1421"
       join="true"
       close="true"
       autoreverse="true" />
    <inkscape:path-effect
       effect="fill_between_many"
       method="originald"
       linkedpaths="#path837,0,1"
       id="path-effect1858"
       join="true"
       close="true"
       autoreverse="true" />
    <clipPath
       id="clip1">
      <path
         d="M 40,0 H 81.261719 V 81.261719 H 40 Z m 0,0"
         id="path1275" />
    </clipPath>
    <clipPath
       id="clip1-3">
      <path
         d="M 40,0 H 81.261719 V 81.261719 H 40 Z m 0,0"
         id="path5164" />
    </clipPath>
    <inkscape:path-effect
       effect="fill_between_many"
       method="originald"
       linkedpaths="#path4575,0,1"
       id="path-effect8678"
       join="true"
       close="true"
       autoreverse="true" />
    <clipPath
       id="clip1-36">
      <path
         d="M 0,0 H 81.261719 V 41 H 0 Z m 0,0"
         id="path11074" />
    </clipPath>
    <clipPath
       id="clip2">
      <path
         d="M 0,40 H 81.261719 V 81.261719 H 0 Z m 0,0"
         id="path11077" />
    </clipPath>
    <clipPath
       id="clip2-7">
      <path
         d="M 0,40 H 81.261719 V 81.261719 H 0 Z m 0,0"
         id="path11365" />
    </clipPath>
    <clipPath
       id="clip1-5">
      <path
         d="M 0,0 H 81.261719 V 41 H 0 Z m 0,0"
         id="path11362" />
    </clipPath>
    <clipPath
       id="clip1-35">
      <path
         d="m 0,38 h 81.261719 v 5 H 0 Z m 0,0"
         id="path6467" />
    </clipPath>
    <clipPath
       id="clip2-6">
      <path
         d="m 38,0 h 5 v 81.261719 h -5 z m 0,0"
         id="path6470" />
    </clipPath>
    <clipPath
       id="clip1-9">
      <path
         d="m 38,0 h 5 v 81.261719 h -5 z m 0,0"
         id="path7290" />
    </clipPath>
    <clipPath
       id="clip1-1">
      <path
         d="m 0,38 h 81.261719 v 5 H 0 Z m 0,0"
         id="path9222" />
    </clipPath>
    <clipPath
       id="clip2-2">
      <path
         d="m 38,0 h 5 v 81.261719 h -5 z m 0,0"
         id="path9225" />
    </clipPath>
    <clipPath
       id="clip1-7">
      <path
         d="m 0,38 h 81.261719 v 5 H 0 Z m 0,0"
         id="path10002" />
    </clipPath>
    <clipPath
       id="clip2-0">
      <path
         d="m 38,0 h 5 v 81.261719 h -5 z m 0,0"
         id="path10005" />
    </clipPath>
  </defs>
  <sodipodi:namedview
     pagecolor="#ffffff"
     bordercolor="#666666"
     borderopacity="1"
     objecttolerance="10"
     gridtolerance="10"
     guidetolerance="10"
     inkscape:pageopacity="0"
     inkscape:pageshadow="2"
     inkscape:window-width="1845"
     inkscape:window-height="1011"
     id="namedview7"
     showgrid="true"
     inkscape:zoom="29.62"
     inkscape:cx="11.293045"
     inkscape:cy="12.677245"
     inkscape:window-x="0"
     inkscape:window-y="0"
     inkscape:window-maximized="1"
     inkscape:current-layer="svg5"
     units="px"
     inkscape:pagecheckerboard="1">
    <inkscape:grid
       type="xygrid"
       id="grid1431" />
  </sodipodi:namedview>
  <path
     style="color:#000000;fill:#bebebe;stroke-miterlimit:10;-inkscape-stroke:none;fill-opacity:1"
     d="M 9,0 8.75,0.25 0,9 9,18 18,9 Z M 9,1.0019531 16.998047,9 9,16.998047 1.0019531,9 Z"
     id="path10734" />
  <path
     style="color:#000000;fill:#bebebe;stroke-miterlimit:10;-inkscape-stroke:none;fill-opacity:1"
     d="M 9,4.25 8.75,4.5 4.25,9 9,13.75 13.75,9 Z M 9,5.2519531 12.748047,9 9,12.748047 5.2519531,9 Z"
     id="path10736" />
</svg>
