<?xml version="1.0" encoding="UTF-8" standalone="no"?>
<svg
   width="24"
   height="24"
   viewBox="0 0 17.999999 17.999999"
   version="1.1"
   id="svg5"
   sodipodi:docname="ngraph_mark80-symbolic.svg"
   inkscape:version="1.1.2 (0a00cf5339, 2022-02-04)"
   xmlns:inkscape="http://www.inkscape.org/namespaces/inkscape"
   xmlns:sodipodi="http://sodipodi.sourceforge.net/DTD/sodipodi-0.dtd"
   xmlns="http://www.w3.org/2000/svg"
   xmlns:svg="http://www.w3.org/2000/svg"
   xmlns:rdf="http://www.w3.org/1999/02/22-rdf-syntax-ns#"
   xmlns:cc="http://creativecommons.org/ns#"
   xmlns:dc="http://purl.org/dc/elements/1.1/">
  <metadata
     id="metadata11">
    <rdf:RDF>
      <cc:Work
         rdf:about="">
        <dc:format>image/svg+xml</dc:format>
        <dc:type
           rdf:resource="http://purl.org/dc/dcmitype/StillImage" />
      </cc:Work>
    </rdf:RDF>
  </metadata>
  <defs
     id="defs9">
    <inkscape:path-effect
       effect="fill_between_many"
       method="originald"
       linkedpaths="#path4,0,1"
       id="path-effect1421"
       join="true"
       close="true"
       autoreverse="true" />
    <inkscape:path-effect
       effect="fill_between_many"
       method="originald"
       linkedpaths="#path837,0,1"
       id="path-effect1858"
       join="true"
       close="true"
       autoreverse="true" />
    <clipPath
       id="clip1">
      <path
         d="M 40,0 H 81.261719 V 81.261719 H 40 Z m 0,0"
         id="path1275" />
    </clipPath>
    <clipPath
       id="clip1-3">
      <path
         d="M 40,0 H 81.261719 V 81.261719 H 40 Z m 0,0"
         id="path5164" />
    </clipPath>
    <inkscape:path-effect
       effect="fill_between_many"
       method="originald"
       linkedpaths="#path4575,0,1"
       id="path-effect8678"
       join="true"
       close="true"
       autoreverse="true" />
    <clipPath
       id="clip1-36">
      <path
         d="M 0,0 H 81.261719 V 41 H 0 Z m 0,0"
         id="path11074" />
    </clipPath>
    <clipPath
       id="clip2">
      <path
         d="M 0,40 H 81.261719 V 81.261719 H 0 Z m 0,0"
         id="path11077" />
    </clipPath>
    <clipPath
       id="clip2-7">
      <path
         d="M 0,40 H 81.261719 V 81.261719 H 0 Z m 0,0"
         id="path11365" />
    </clipPath>
    <clipPath
       id="clip1-5">
      <path
         d="M 0,0 H 81.261719 V 41 H 0 Z m 0,0"
         id="path11362" />
    </clipPath>
    <clipPath
       id="clip1-35">
      <path
         d="m 0,38 h 81.261719 v 5 H 0 Z m 0,0"
         id="path6467" />
    </clipPath>
    <clipPath
       id="clip2-6">
      <path
         d="m 38,0 h 5 v 81.261719 h -5 z m 0,0"
         id="path6470" />
    </clipPath>
    <clipPath
       id="clip1-9">
      <path
         d="m 38,0 h 5 v 81.261719 h -5 z m 0,0"
         id="path7290" />
    </clipPath>
  </defs>
  <sodipodi:namedview
     pagecolor="#ffffff"
     bordercolor="#666666"
     borderopacity="1"
     objecttolerance="10"
     gridtolerance="10"
     guidetolerance="10"
     inkscape:pageopacity="0"
     inkscape:pageshadow="2"
     inkscape:window-width="1845"
     inkscape:window-height="1011"
     id="namedview7"
     showgrid="true"
     inkscape:zoom="29.62"
     inkscape:cx="11.293045"
     inkscape:cy="12.677245"
     inkscape:window-x="0"
     inkscape:window-y="0"
     inkscape:window-maximized="1"
     inkscape:current-layer="svg5"
     units="px"
     inkscape:pagecheckerboard="1">
    <inkscape:grid
       type="xygrid"
       id="grid1431" />
  </sodipodi:namedview>
  <path
     style="color:#000000;fill:#bebebe;stroke-miterlimit:10;-inkscape-stroke:none;fill-opacity:1"
     d="M 9,0 C 4.0341818,0 0,4.0342693 0,9 c 0,4.966527 4.0341818,9 9,9 4.966615,0 9,-4.033473 9,-9 C 18,4.0342693 13.966615,0 9,0 Z M 9,0.72070312 C 13.577539,0.72070313 17.279297,4.4234287 17.279297,9 17.279297,13.577435 13.577538,17.279297 9,17.279297 4.4233256,17.279297 0.71875,13.577435 0.71875,9 0.71875,4.4234286 4.4233255,0.72070312 9,0.72070312 Z"
     id="path8767" />
  <path
     style="color:#000000;fill:#bebebe;stroke-miterlimit:10;-inkscape-stroke:none;fill-opacity:1"
     d="M 9,4.3203125 C 6.4198468,4.3203125 4.3203125,6.4198866 4.3203125,9 c 0,2.580113 2.0994507,4.679687 4.6796875,4.679688 2.580237,0 4.679687,-2.099491 4.679688,-4.679688 C 13.679688,6.419803 11.580153,4.3203125 9,4.3203125 Z m 0,0.7207031 c 2.191093,0 3.958984,1.7680303 3.958984,3.9589844 0,2.190954 -1.767975,3.958984 -3.958984,3.958984 C 6.8089905,12.958984 5.0390625,11.191038 5.0390625,9 5.0390625,6.8089624 6.808907,5.0410156 9,5.0410156 Z"
     id="path8769" />
</svg>
