<?xml version="1.0" encoding="UTF-8" standalone="no"?>
<svg
   xmlns:dc="http://purl.org/dc/elements/1.1/"
   xmlns:cc="http://creativecommons.org/ns#"
   xmlns:rdf="http://www.w3.org/1999/02/22-rdf-syntax-ns#"
   xmlns:svg="http://www.w3.org/2000/svg"
   xmlns="http://www.w3.org/2000/svg"
   xmlns:sodipodi="http://sodipodi.sourceforge.net/DTD/sodipodi-0.dtd"
   xmlns:inkscape="http://www.inkscape.org/namespaces/inkscape"
   width="24"
   height="24"
   viewBox="0 0 18.000001 18"
   version="1.1"
   id="svg4676"
   sodipodi:docname="ngraph_filewin-symbolic.svg"
   inkscape:version="0.92.3 (2405546, 2018-03-11)">
  <metadata
     id="metadata4682">
    <rdf:RDF>
      <cc:Work
         rdf:about="">
        <dc:format>image/svg+xml</dc:format>
        <dc:type
           rdf:resource="http://purl.org/dc/dcmitype/StillImage" />
        <dc:title></dc:title>
      </cc:Work>
    </rdf:RDF>
  </metadata>
  <defs
     id="defs4680" />
  <sodipodi:namedview
     pagecolor="#ffffff"
     bordercolor="#666666"
     borderopacity="1"
     objecttolerance="10"
     gridtolerance="10"
     guidetolerance="10"
     inkscape:pageopacity="0"
     inkscape:pageshadow="2"
     inkscape:window-width="1366"
     inkscape:window-height="704"
     id="namedview4678"
     showgrid="true"
     units="px"
     inkscape:zoom="18.007537"
     inkscape:cx="8.8031255"
     inkscape:cy="11.274911"
     inkscape:window-x="0"
     inkscape:window-y="27"
     inkscape:window-maximized="1"
     inkscape:current-layer="svg4676"
     showguides="true"
     inkscape:guide-bbox="true">
    <inkscape:grid
       type="xygrid"
       id="grid6508" />
    <sodipodi:guide
       position="6.7500002,0"
       orientation="0,1"
       id="guide5526"
       inkscape:locked="false" />
  </sodipodi:namedview>
  <rect
     style="opacity:1;fill:#bebebe;fill-opacity:1;stroke:none;stroke-width:0.49099034;stroke-linejoin:miter;stroke-miterlimit:4;stroke-dasharray:none;stroke-dashoffset:0;stroke-opacity:1;paint-order:markers fill stroke"
     id="rect6542"
     width="1.5000006"
     height="2.25"
     x="6.75"
     y="13.5" />
  <rect
     style="opacity:1;fill:#bebebe;fill-opacity:1;stroke:none;stroke-width:0.4909904;stroke-linejoin:miter;stroke-miterlimit:4;stroke-dasharray:none;stroke-dashoffset:0;stroke-opacity:1;paint-order:markers fill stroke"
     id="rect6544"
     width="1.500001"
     height="2.25"
     x="10.499999"
     y="13.5" />
  <path
     style="opacity:1;fill:#bebebe;fill-opacity:1;fill-rule:evenodd;stroke:none;stroke-width:1;stroke-linejoin:miter;stroke-miterlimit:4;stroke-dasharray:none;stroke-dashoffset:0;stroke-opacity:1;paint-order:markers fill stroke"
     d="M 0 0 L 0 24 L 24 24 L 24 0 L 0 0 z M 1 1 L 23 1 L 23 23 L 1 23 L 1 1 z "
     transform="scale(0.75000002)"
     id="rect5528" />
  <g
     aria-label="1
2
3"
     style="font-style:normal;font-variant:normal;font-weight:bold;font-stretch:normal;font-size:6px;line-height:89.19999599%;font-family:'DejaVu Sans';-inkscape-font-specification:'DejaVu Sans Bold';letter-spacing:0px;word-spacing:0px;fill:#bebebe;fill-opacity:1;stroke:none;stroke-width:0.75px;stroke-linecap:butt;stroke-linejoin:miter;stroke-opacity:1"
     id="text5554">
    <path
       d="M 1.9535435,5.0105739 H 2.9496373 V 2.1834254 L 1.9271764,2.3943629 V 1.6267848 L 2.9437779,1.4158473 H 4.0160435 V 5.0105739 H 5.0121373 V 5.7898707 H 1.9535435 Z"
       style="font-style:normal;font-variant:normal;font-weight:bold;font-stretch:normal;font-family:'DejaVu Sans';-inkscape-font-specification:'DejaVu Sans Bold';fill:#bebebe;fill-opacity:1;stroke-width:0.75px"
       id="path5625" />
    <path
       d="M 2.9789342,10.312769 H 4.9037389 V 11.14187 H 1.7250279 V 10.312769 L 3.3217076,8.9035892 q 0.2138672,-0.1933593 0.3164063,-0.3779296 0.102539,-0.1845704 0.102539,-0.3837891 0,-0.3076172 -0.2080078,-0.4951172 -0.2050781,-0.1875 -0.5478516,-0.1875 -0.2636718,0 -0.5771484,0.1142578 Q 2.0941685,7.6848392 1.7367467,7.9074955 V 6.946558 Q 2.117606,6.8205814 2.4896764,6.7561283 q 0.3720703,-0.067383 0.7294921,-0.067383 0.7851563,0 1.21875,0.3457031 0.4365235,0.3457031 0.4365235,0.9638672 0,0.3574219 -0.1845703,0.6679688 -0.1845703,0.3076171 -0.7763672,0.8261718 z"
       style="font-style:normal;font-variant:normal;font-weight:bold;font-stretch:normal;font-family:'DejaVu Sans';-inkscape-font-specification:'DejaVu Sans Bold';fill:#bebebe;fill-opacity:1;stroke-width:0.75px"
       id="path5627" />
    <path
       d="m 4.0453404,14.135472 q 0.4423828,0.114258 0.6708985,0.398437 0.2314453,0.28125 0.2314453,0.717774 0,0.65039 -0.4980469,0.990234 -0.4980469,0.336914 -1.453125,0.336914 -0.3369141,0 -0.6767578,-0.05566 -0.3369141,-0.05273 -0.6679688,-0.161133 v -0.870117 q 0.3164063,0.158203 0.6269532,0.240235 0.3134765,0.0791 0.6152343,0.0791 0.4482422,0 0.6855469,-0.155273 0.2402344,-0.155274 0.2402344,-0.445313 0,-0.298828 -0.2460938,-0.451172 -0.243164,-0.155273 -0.7207031,-0.155273 H 2.4017857 v -0.726563 h 0.4746094 q 0.4248047,0 0.6328125,-0.131836 0.2080078,-0.134765 0.2080078,-0.407226 0,-0.251953 -0.2021484,-0.389649 -0.2021485,-0.137695 -0.5712891,-0.137695 -0.2724609,0 -0.5507812,0.06152 -0.2783203,0.06152 -0.553711,0.18164 v -0.826172 q 0.3339844,-0.09375 0.6621094,-0.140625 0.328125,-0.04687 0.6445313,-0.04687 0.852539,0 1.274414,0.28125 0.4248047,0.278321 0.4248047,0.840821 0,0.383789 -0.2021484,0.629882 -0.2021485,0.243164 -0.5976563,0.342774 z"
       style="font-style:normal;font-variant:normal;font-weight:bold;font-stretch:normal;font-family:'DejaVu Sans';-inkscape-font-specification:'DejaVu Sans Bold';fill:#bebebe;fill-opacity:1;stroke-width:0.75px"
       id="path5629" />
  </g>
  <rect
     style="opacity:1;fill:#bebebe;fill-opacity:1;stroke:none;stroke-width:0.4909904;stroke-linejoin:miter;stroke-miterlimit:4;stroke-dasharray:none;stroke-dashoffset:0;stroke-opacity:1;paint-order:markers fill stroke"
     id="rect6544-4"
     width="1.500001"
     height="2.25"
     x="14.249999"
     y="13.5" />
  <rect
     style="opacity:1;fill:#bebebe;fill-opacity:1;stroke:none;stroke-width:0.49099034;stroke-linejoin:miter;stroke-miterlimit:4;stroke-dasharray:none;stroke-dashoffset:0;stroke-opacity:1;paint-order:markers fill stroke"
     id="rect6542-6"
     width="1.5000006"
     height="2.25"
     x="6.7500014"
     y="8.25" />
  <rect
     style="opacity:1;fill:#bebebe;fill-opacity:1;stroke:none;stroke-width:0.4909904;stroke-linejoin:miter;stroke-miterlimit:4;stroke-dasharray:none;stroke-dashoffset:0;stroke-opacity:1;paint-order:markers fill stroke"
     id="rect6544-2"
     width="1.500001"
     height="2.25"
     x="10.5"
     y="8.25" />
  <rect
     style="opacity:1;fill:#bebebe;fill-opacity:1;stroke:none;stroke-width:0.4909904;stroke-linejoin:miter;stroke-miterlimit:4;stroke-dasharray:none;stroke-dashoffset:0;stroke-opacity:1;paint-order:markers fill stroke"
     id="rect6544-4-7"
     width="1.500001"
     height="2.25"
     x="14.249999"
     y="8.25" />
  <rect
     style="opacity:1;fill:#bebebe;fill-opacity:1;stroke:none;stroke-width:0.49099034;stroke-linejoin:miter;stroke-miterlimit:4;stroke-dasharray:none;stroke-dashoffset:0;stroke-opacity:1;paint-order:markers fill stroke"
     id="rect6542-67"
     width="1.5000006"
     height="2.25"
     x="6.7500024"
     y="3"
     inkscape:transform-center-x="4.4163875"
     inkscape:transform-center-y="0.45814152" />
  <rect
     style="opacity:1;fill:#bebebe;fill-opacity:1;stroke:none;stroke-width:0.4909904;stroke-linejoin:miter;stroke-miterlimit:4;stroke-dasharray:none;stroke-dashoffset:0;stroke-opacity:1;paint-order:markers fill stroke"
     id="rect6544-1"
     width="1.500001"
     height="2.25"
     x="10.5"
     y="3"
     inkscape:transform-center-x="0.66638815"
     inkscape:transform-center-y="0.45814152" />
  <rect
     style="opacity:1;fill:#bebebe;fill-opacity:1;stroke:none;stroke-width:0.4909904;stroke-linejoin:miter;stroke-miterlimit:4;stroke-dasharray:none;stroke-dashoffset:0;stroke-opacity:1;paint-order:markers fill stroke"
     id="rect6544-4-71"
     width="1.500001"
     height="2.25"
     x="14.25"
     y="3"
     inkscape:transform-center-x="-3.083612"
     inkscape:transform-center-y="0.45814152" />
</svg>
