<?xml version="1.0" encoding="UTF-8" standalone="no"?>
<svg
   xmlns:dc="http://purl.org/dc/elements/1.1/"
   xmlns:cc="http://creativecommons.org/ns#"
   xmlns:rdf="http://www.w3.org/1999/02/22-rdf-syntax-ns#"
   xmlns:svg="http://www.w3.org/2000/svg"
   xmlns="http://www.w3.org/2000/svg"
   xmlns:sodipodi="http://sodipodi.sourceforge.net/DTD/sodipodi-0.dtd"
   xmlns:inkscape="http://www.inkscape.org/namespaces/inkscape"
   width="24"
   height="24"
   viewBox="0 0 18.000001 18"
   version="1.1"
   id="svg4676"
   sodipodi:docname="ngraph_scale-symbolic.svg"
   inkscape:version="0.92.3 (2405546, 2018-03-11)">
  <metadata
     id="metadata4682">
    <rdf:RDF>
      <cc:Work
         rdf:about="">
        <dc:format>image/svg+xml</dc:format>
        <dc:type
           rdf:resource="http://purl.org/dc/dcmitype/StillImage" />
        <dc:title></dc:title>
      </cc:Work>
    </rdf:RDF>
  </metadata>
  <defs
     id="defs4680" />
  <sodipodi:namedview
     pagecolor="#ffffff"
     bordercolor="#666666"
     borderopacity="1"
     objecttolerance="10"
     gridtolerance="10"
     guidetolerance="10"
     inkscape:pageopacity="0"
     inkscape:pageshadow="2"
     inkscape:window-width="1366"
     inkscape:window-height="704"
     id="namedview4678"
     showgrid="true"
     units="px"
     inkscape:zoom="18.007537"
     inkscape:cx="6.0925054"
     inkscape:cy="12.620456"
     inkscape:window-x="0"
     inkscape:window-y="27"
     inkscape:window-maximized="1"
     inkscape:current-layer="svg4676">
    <inkscape:grid
       type="xygrid"
       id="grid6508" />
  </sodipodi:namedview>
  <rect
     style="opacity:1;fill:#bebebe;fill-opacity:1;stroke:none;stroke-width:0.75;stroke-linejoin:miter;stroke-miterlimit:4;stroke-dasharray:none;stroke-dashoffset:0;stroke-opacity:1;paint-order:markers fill stroke"
     id="rect6512"
     width="14.25"
     height="2.25"
     x="0.75"
     y="13.5" />
  <rect
     style="opacity:1;fill:#bebebe;fill-opacity:1;stroke:none;stroke-width:0.75;stroke-linejoin:miter;stroke-miterlimit:4;stroke-dasharray:none;stroke-dashoffset:0;stroke-opacity:1;paint-order:markers fill stroke"
     id="rect6514"
     width="2.25"
     height="14.25"
     x="2.25"
     y="3.0000002" />
  <path
     style="fill:#bebebe;fill-opacity:1;fill-rule:evenodd;stroke:none;stroke-width:0.75px;stroke-linecap:butt;stroke-linejoin:miter;stroke-opacity:1"
     d="m 12.75,11.625 4.5,3 -4.5,3 z"
     id="path6516"
     inkscape:connector-curvature="0"
     sodipodi:nodetypes="cccc" />
  <path
     style="fill:#bebebe;fill-opacity:1;fill-rule:evenodd;stroke:none;stroke-width:0.75px;stroke-linecap:butt;stroke-linejoin:miter;stroke-opacity:1"
     d="m 0.37500001,5.2500004 3.00000019,-4.49999994 3,4.49999994 z"
     id="path6516-5"
     inkscape:connector-curvature="0"
     sodipodi:nodetypes="cccc" />
  <g
     aria-label="?"
     style="font-style:normal;font-variant:normal;font-weight:bold;font-stretch:normal;font-size:16px;line-height:125%;font-family:'DejaVu Sans Mono';-inkscape-font-specification:'DejaVu Sans Mono Bold';letter-spacing:0px;word-spacing:0px;fill:#bebebe;fill-opacity:1;stroke:none;stroke-width:0.75px;stroke-linecap:butt;stroke-linejoin:miter;stroke-opacity:1"
     id="text7808"
     transform="matrix(1,0,0,0.93681206,0.01776829,0.0186865)">
    <path
       d="m 8.3962693,10.578515 h 2.0859377 v 2.210938 H 8.3962693 Z M 10.482207,9.6566401 H 8.3962693 v -1.203125 q 0,-0.7734375 0.2421875,-1.3203125 0.2421875,-0.546875 0.8671875,-1.15625 L 10.208769,5.2816401 q 0.492188,-0.4765625 0.664063,-0.7890625 0.179687,-0.3125 0.179687,-0.6484375 0,-0.5234375 -0.359375,-0.7890625 -0.359375,-0.265625 -1.0781247,-0.265625 -0.65625,0 -1.375,0.28125 -0.7109375,0.2734375 -1.4609375,0.8203125 v -2.09375 q 0.765625,-0.4375 1.546875,-0.65625 0.7890625,-0.22656255 1.578125,-0.22656255 1.5781252,0 2.4765622,0.73437505 0.898438,0.734375 0.898438,2.0234375 0,0.59375 -0.265625,1.109375 -0.265625,0.5078125 -1,1.2265625 l -0.6875,0.671875 q -0.53125,0.515625 -0.679688,0.84375 -0.148437,0.328125 -0.148437,0.8046875 0,0.070312 -0.0078,0.1640625 0,0.09375 -0.0078,0.203125 z"
       style="font-style:normal;font-variant:normal;font-weight:bold;font-stretch:normal;font-family:'DejaVu Sans Mono';-inkscape-font-specification:'DejaVu Sans Mono Bold';fill:#bebebe;fill-opacity:1;stroke-width:0.75px"
       id="path7810"
       inkscape:connector-curvature="0" />
  </g>
</svg>
