<?xml version="1.0" encoding="UTF-8" standalone="no"?>
<svg
   width="24"
   height="24"
   viewBox="0 0 17.999999 17.999999"
   version="1.1"
   id="svg5"
   sodipodi:docname="ngraph_mark82-symbolic.svg"
   inkscape:version="1.1.2 (0a00cf5339, 2022-02-04)"
   xmlns:inkscape="http://www.inkscape.org/namespaces/inkscape"
   xmlns:sodipodi="http://sodipodi.sourceforge.net/DTD/sodipodi-0.dtd"
   xmlns="http://www.w3.org/2000/svg"
   xmlns:svg="http://www.w3.org/2000/svg"
   xmlns:rdf="http://www.w3.org/1999/02/22-rdf-syntax-ns#"
   xmlns:cc="http://creativecommons.org/ns#"
   xmlns:dc="http://purl.org/dc/elements/1.1/">
  <metadata
     id="metadata11">
    <rdf:RDF>
      <cc:Work
         rdf:about="">
        <dc:format>image/svg+xml</dc:format>
        <dc:type
           rdf:resource="http://purl.org/dc/dcmitype/StillImage" />
      </cc:Work>
    </rdf:RDF>
  </metadata>
  <defs
     id="defs9">
    <inkscape:path-effect
       effect="fill_between_many"
       method="originald"
       linkedpaths="#path4,0,1"
       id="path-effect1421"
       join="true"
       close="true"
       autoreverse="true" />
    <inkscape:path-effect
       effect="fill_between_many"
       method="originald"
       linkedpaths="#path837,0,1"
       id="path-effect1858"
       join="true"
       close="true"
       autoreverse="true" />
    <clipPath
       id="clip1">
      <path
         d="M 40,0 H 81.261719 V 81.261719 H 40 Z m 0,0"
         id="path1275" />
    </clipPath>
    <clipPath
       id="clip1-3">
      <path
         d="M 40,0 H 81.261719 V 81.261719 H 40 Z m 0,0"
         id="path5164" />
    </clipPath>
    <inkscape:path-effect
       effect="fill_between_many"
       method="originald"
       linkedpaths="#path4575,0,1"
       id="path-effect8678"
       join="true"
       close="true"
       autoreverse="true" />
    <clipPath
       id="clip1-36">
      <path
         d="M 0,0 H 81.261719 V 41 H 0 Z m 0,0"
         id="path11074" />
    </clipPath>
    <clipPath
       id="clip2">
      <path
         d="M 0,40 H 81.261719 V 81.261719 H 0 Z m 0,0"
         id="path11077" />
    </clipPath>
    <clipPath
       id="clip2-7">
      <path
         d="M 0,40 H 81.261719 V 81.261719 H 0 Z m 0,0"
         id="path11365" />
    </clipPath>
    <clipPath
       id="clip1-5">
      <path
         d="M 0,0 H 81.261719 V 41 H 0 Z m 0,0"
         id="path11362" />
    </clipPath>
    <clipPath
       id="clip1-35">
      <path
         d="m 0,38 h 81.261719 v 5 H 0 Z m 0,0"
         id="path6467" />
    </clipPath>
    <clipPath
       id="clip2-6">
      <path
         d="m 38,0 h 5 v 81.261719 h -5 z m 0,0"
         id="path6470" />
    </clipPath>
    <clipPath
       id="clip1-9">
      <path
         d="m 38,0 h 5 v 81.261719 h -5 z m 0,0"
         id="path7290" />
    </clipPath>
    <clipPath
       id="clip1-1">
      <path
         d="m 0,38 h 81.261719 v 5 H 0 Z m 0,0"
         id="path9222" />
    </clipPath>
    <clipPath
       id="clip2-2">
      <path
         d="m 38,0 h 5 v 81.261719 h -5 z m 0,0"
         id="path9225" />
    </clipPath>
  </defs>
  <sodipodi:namedview
     pagecolor="#ffffff"
     bordercolor="#666666"
     borderopacity="1"
     objecttolerance="10"
     gridtolerance="10"
     guidetolerance="10"
     inkscape:pageopacity="0"
     inkscape:pageshadow="2"
     inkscape:window-width="1845"
     inkscape:window-height="1011"
     id="namedview7"
     showgrid="true"
     inkscape:zoom="29.62"
     inkscape:cx="11.293045"
     inkscape:cy="12.677245"
     inkscape:window-x="0"
     inkscape:window-y="0"
     inkscape:window-maximized="1"
     inkscape:current-layer="svg5"
     units="px"
     inkscape:pagecheckerboard="1">
    <inkscape:grid
       type="xygrid"
       id="grid1431" />
  </sodipodi:namedview>
  <g
     id="g9471"
     transform="rotate(-45,8.9997095,9.000101)">
    <path
       style="color:#000000;fill:#bebebe;fill-opacity:1;stroke-width:0.212644;stroke-miterlimit:10;-inkscape-stroke:none"
       d="m 8.9992943,1.9296273e-4 c -4.9658238,0 -8.99967230711,4.03376813727 -8.99967230711,8.99949283727 0,4.9665212 4.03384850711,9.0003232 8.99967230711,9.0003232 4.9666207,0 9.0005027,-4.033802 9.0005027,-9.0003232 0,-4.9657247 -4.033882,-8.99949283727 -9.0005027,-8.99949283727 z m 0,0.72015879727 c 4.5775327,0 8.2803297,3.70275704 8.2803297,8.27933404 0,4.5774412 -3.702797,8.2801652 -8.2803297,8.2801652 -4.5766683,0 -8.27949915,-3.702724 -8.27949915,-8.2801652 0,-4.576577 3.70283085,-8.27933404 8.27949915,-8.27933404 z"
       id="path9230" />
    <g
       clip-path="url(#clip1-1)"
       clip-rule="nonzero"
       id="g9234"
       style="fill:#bebebe;fill-opacity:1"
       transform="matrix(0.21264628,0,0,0.21264204,0.35970857,0.36027236)">
      <path
         style="color:#000000;fill:#bebebe;fill-opacity:1;stroke-miterlimit:10;-inkscape-stroke:none"
         d="m 0,38.935547 v 3.386719 h 81.261719 v -3.386719 z"
         id="path9232" />
    </g>
    <g
       clip-path="url(#clip2-2)"
       clip-rule="nonzero"
       id="g9238"
       style="fill:#bebebe;fill-opacity:1"
       transform="matrix(0.21264628,0,0,0.21264204,0.35970857,0.36027236)">
      <path
         style="color:#000000;fill:#bebebe;fill-opacity:1;stroke-miterlimit:10;-inkscape-stroke:none"
         d="m 38.935547,0 v 81.261719 h 3.386719 V 0 Z"
         id="path9236" />
    </g>
  </g>
</svg>
