<?xml version="1.0" encoding="UTF-8" standalone="no"?>
<svg
   xmlns:dc="http://purl.org/dc/elements/1.1/"
   xmlns:cc="http://creativecommons.org/ns#"
   xmlns:rdf="http://www.w3.org/1999/02/22-rdf-syntax-ns#"
   xmlns:svg="http://www.w3.org/2000/svg"
   xmlns="http://www.w3.org/2000/svg"
   xmlns:sodipodi="http://sodipodi.sourceforge.net/DTD/sodipodi-0.dtd"
   xmlns:inkscape="http://www.inkscape.org/namespaces/inkscape"
   width="67.716535pt"
   height="67.716535pt"
   viewBox="0 0 67.716535 67.716535"
   version="1.1"
   id="svg8281"
   sodipodi:docname="wave_begin-symbolic.svg"
   inkscape:version="0.92.3 (2405546, 2018-03-11)">
  <metadata
     id="metadata8285">
    <rdf:RDF>
      <cc:Work
         rdf:about="">
        <dc:format>image/svg+xml</dc:format>
        <dc:type
           rdf:resource="http://purl.org/dc/dcmitype/StillImage" />
      </cc:Work>
    </rdf:RDF>
  </metadata>
  <sodipodi:namedview
     pagecolor="#ffffff"
     bordercolor="#666666"
     borderopacity="1"
     objecttolerance="10"
     gridtolerance="10"
     guidetolerance="10"
     inkscape:pageopacity="0"
     inkscape:pageshadow="2"
     inkscape:window-width="1366"
     inkscape:window-height="704"
     id="namedview8283"
     showgrid="false"
     inkscape:zoom="2.6138371"
     inkscape:cx="54.900131"
     inkscape:cy="45.144358"
     inkscape:window-x="0"
     inkscape:window-y="27"
     inkscape:window-maximized="1"
     inkscape:current-layer="svg8281" />
  <defs
     id="defs8272">
    <clipPath
       id="clip1">
      <path
         d="M 0 0 L 67.714844 0 L 67.714844 67.714844 L 0 67.714844 Z M 0 0 "
         id="path8269" />
    </clipPath>
  </defs>
  <g
     id="surface21"
     style="stroke:none;fill:#bebebe;fill-opacity:1">
    <path
       style="color:#000000;font-style:normal;font-variant:normal;font-weight:normal;font-stretch:normal;font-size:medium;line-height:normal;font-family:sans-serif;font-variant-ligatures:normal;font-variant-position:normal;font-variant-caps:normal;font-variant-numeric:normal;font-variant-alternates:normal;font-feature-settings:normal;text-indent:0;text-align:start;text-decoration:none;text-decoration-line:none;text-decoration-style:solid;text-decoration-color:#000000;letter-spacing:normal;word-spacing:normal;text-transform:none;writing-mode:lr-tb;direction:ltr;text-orientation:mixed;dominant-baseline:auto;baseline-shift:baseline;text-anchor:start;white-space:normal;shape-padding:0;clip-rule:nonzero;display:inline;overflow:visible;visibility:visible;opacity:1;isolation:auto;mix-blend-mode:normal;color-interpolation:sRGB;color-interpolation-filters:linearRGB;solid-color:#000000;solid-opacity:1;vector-effect:none;fill:#bebebe;fill-opacity:1;fill-rule:nonzero;stroke:none;stroke-width:10.15748024;stroke-linecap:butt;stroke-linejoin:bevel;stroke-miterlimit:10;stroke-dasharray:none;stroke-dashoffset:0;stroke-opacity:1;color-rendering:auto;image-rendering:auto;shape-rendering:auto;text-rendering:auto;enable-background:accumulate"
       d="M 13.542969,28.78125 V 38.9375 H 60.945312 V 28.78125 Z"
       id="path8274"
       inkscape:connector-curvature="0" />
    <g
       clip-path="url(#clip1)"
       clip-rule="nonzero"
       id="g8278"
       style="stroke:none;fill:#bebebe;fill-opacity:1">
      <path
         style="color:#000000;font-style:normal;font-variant:normal;font-weight:normal;font-stretch:normal;font-size:medium;line-height:normal;font-family:sans-serif;font-variant-ligatures:normal;font-variant-position:normal;font-variant-caps:normal;font-variant-numeric:normal;font-variant-alternates:normal;font-feature-settings:normal;text-indent:0;text-align:start;text-decoration:none;text-decoration-line:none;text-decoration-style:solid;text-decoration-color:#000000;letter-spacing:normal;word-spacing:normal;text-transform:none;writing-mode:lr-tb;direction:ltr;text-orientation:mixed;dominant-baseline:auto;baseline-shift:baseline;text-anchor:start;white-space:normal;shape-padding:0;clip-rule:nonzero;display:inline;overflow:visible;visibility:visible;opacity:1;isolation:auto;mix-blend-mode:normal;color-interpolation:sRGB;color-interpolation-filters:linearRGB;solid-color:#000000;solid-opacity:1;vector-effect:none;fill:#bebebe;fill-opacity:1;fill-rule:nonzero;stroke:none;stroke-width:10.15748024;stroke-linecap:butt;stroke-linejoin:miter;stroke-miterlimit:10;stroke-dasharray:none;stroke-dashoffset:0;stroke-opacity:1;color-rendering:auto;image-rendering:auto;shape-rendering:auto;text-rendering:auto;enable-background:accumulate"
         d="M 9.4199219,10.578125 8.8417969,11.380859 8.1425781,12.3125 7.4082031,13.316406 6.796875,14.238281 6.2167969,15.125 l -0.5664063,0.958984 -0.4511718,0.865235 -0.4589844,0.912109 -0.3710938,0.9375 -0.3476562,0.933594 -0.2539063,0.976562 -0.21875,0.972657 -0.1113281,1.013671 -0.050781,0.847657 v 0.373047 l 0.050781,0.884765 0.1074219,0.994141 0.2421875,1.130859 0.2949218,0.939453 0.3339844,0.962891 0.4433594,0.986328 0.5,0.994141 0.5429688,0.919922 0.5234374,0.859375 0.6054688,0.949218 0.7617188,1.121094 0.8085937,1.0625 0.8417969,1.136719 0.6171876,0.855469 0.722656,0.96289 0.558594,0.761719 0.464844,0.701172 0.433593,0.664062 0.316407,0.539063 0.292968,0.556641 0.222657,0.445312 0.166015,0.410156 0.126953,0.34961 0.08399,0.314453 0.05469,0.248047 0.02344,0.205078 0.0098,0.18164 -0.01172,0.216797 -0.02539,0.226563 -0.03516,0.169922 -0.09961,0.316406 -0.138672,0.392578 -0.175781,0.390625 -0.246093,0.494141 -0.332032,0.560546 -0.425781,0.701172 -0.474609,0.740235 -0.529297,0.779297 -0.681641,0.894531 -0.8964842,1.208984 8.1562502,6.054688 0.861328,-1.158203 0.810547,-1.066407 0.759765,-1.11914 0.611328,-0.955078 0.519532,-0.853516 0.550781,-0.931641 0.496094,-0.998046 0.433593,-0.960938 0.337891,-0.958984 0.306641,-0.972657 0.230468,-1.11914 0.115235,-0.992188 0.04492,-0.90039 v -0.335938 l -0.04687,-0.865234 -0.117188,-1.013672 -0.210937,-0.970703 -0.259766,-0.97461 -0.341797,-0.939453 -0.380859,-0.941406 -0.449219,-0.90625 -0.457031,-0.865234 -0.558594,-0.953125 -0.589844,-0.898438 -0.613281,-0.923828 -0.730469,-0.996094 -0.699218,-0.935547 -0.601563,-0.832031 -0.916016,-1.238281 -0.683593,-0.898438 -0.527344,-0.777343 -0.472656,-0.738282 -0.429688,-0.703125 -0.332031,-0.564453 -0.25,-0.498047 -0.166016,-0.365234 -0.134765,-0.396484 -0.111328,-0.34961 -0.03125,-0.15039 -0.02539,-0.22461 -0.01172,-0.210937 0.01172,-0.191406 0.02148,-0.205079 0.05469,-0.246093 0.08203,-0.3125 0.128906,-0.347657 0.167969,-0.421875 0.220703,-0.439453 0.291016,-0.55664 0.316406,-0.533203 0.435547,-0.667969 0.466797,-0.703125 0.554687,-0.761719 0.722657,-0.958984 0.640625,-0.892579 z"
         id="path8276"
         inkscape:connector-curvature="0" />
    </g>
  </g>
</svg>
